<svg width="461" height="235" viewBox="0 0 461 235" fill="none" xmlns="http://www.w3.org/2000/svg">
<path d="M3.07863 78V8.016H34.9506V23.088H20.0706V35.28H33.6066V49.296H20.0706V62.928H34.9506V78H3.07863ZM47.7119 78L37.5359 8.016H53.5679L57.4079 47.568L58.6559 62.064H59.3279L60.3839 47.664L64.4159 8.016H80.4479L70.1759 78H47.7119ZM83.1411 78V8.016H115.013V23.088H100.133V35.28H113.669V49.296H100.133V62.928H115.013V78H83.1411ZM119.422 78V8.016H138.718C151.966 8.016 160.894 12.72 160.894 28.368C160.894 37.488 157.726 43.152 152.83 44.88V45.552C158.206 46.512 159.838 52.752 159.838 59.664V70.896C159.838 73.872 160.126 75.984 160.51 78H143.134C142.558 76.08 142.366 73.2 142.366 71.952V61.584C142.366 58.224 142.27 54.192 139.006 54.192H136.606V78H119.422ZM136.606 40.752H137.854C142.558 40.752 143.614 37.584 143.614 31.92C143.614 25.392 141.886 23.088 137.758 23.088H136.606V40.752ZM172.956 78V51.792L159.036 8.016H177.852L181.596 34.32H182.172L186.3 8.016H205.02L191.1 51.792V78H172.956ZM222.922 78V8.016H254.89V23.088H240.778V37.68H253.162V51.984H240.778V78H222.922ZM252.978 78L263.73 8.016H287.826L298.77 78H281.97L280.53 66.48H271.122L269.778 78H252.978ZM272.466 53.04H279.09L277.554 38.256L276.114 23.952H275.442L274.194 38.352L272.466 53.04ZM319.969 78.864C303.649 78.864 298.945 64.944 298.945 42.96C298.945 21.072 303.841 7.056 321.121 7.056C334.177 7.056 341.377 13.872 342.241 33.36H325.921C325.441 25.584 324.673 22.032 321.217 22.032C317.185 22.032 316.321 28.56 316.321 42.96C316.321 58.512 317.473 63.888 321.217 63.888C324.865 63.888 325.537 59.76 325.921 52.08H342.241C341.761 71.376 334.369 78.864 319.969 78.864ZM346.391 78V8.016H378.263V23.088H363.383V35.28H376.919V49.296H363.383V62.928H378.263V78H346.391ZM397.11 78V8.016H415.062V78H397.11ZM439.078 78.96C424.678 78.96 419.014 69.744 419.014 55.824H433.894C433.894 63.6 435.526 66 438.502 66C441.286 66 442.15 63.792 442.15 60.144C442.15 54.768 439.558 52.56 432.934 48.528C426.214 44.496 419.398 38.832 419.398 26.544C419.398 13.2 427.462 7.152 438.886 7.152C451.27 7.152 458.758 13.2 458.758 28.944H443.59C443.686 22.32 442.63 19.824 439.75 19.824C437.254 19.824 436.294 21.936 436.294 25.392C436.294 30.576 438.406 32.4 444.454 36.048C452.518 40.944 459.334 46.992 459.334 58.608C459.334 72.432 451.75 78.96 439.078 78.96ZM9.931 164L20.683 94.016H44.779L55.723 164H38.923L37.483 152.48H28.075L26.731 164H9.931ZM29.419 139.04H36.043L34.507 124.256L33.067 109.952H32.395L31.147 124.352L29.419 139.04ZM74.0005 164V94.016H92.1445L99.6325 128.864H100.305L99.4405 108.8V94.016H115.185V164H97.2325L89.4565 129.632H88.8805L89.7445 148.928V164H74.0005ZM120.594 164V94.016H152.466V109.088H137.586V121.28H151.122V135.296H137.586V148.928H152.466V164H120.594ZM163.212 164L154.38 94.016H171.564L174.06 127.52L175.02 145.664H175.692L179.916 94.016H199.212L203.436 145.856H204.108L204.684 127.712L207.18 94.016H224.46L215.628 164H192.78L189.9 118.4H189.324L185.964 164H163.212ZM260.343 164.96C245.943 164.96 240.279 155.744 240.279 141.824H255.159C255.159 149.6 256.791 152 259.767 152C262.551 152 263.415 149.792 263.415 146.144C263.415 140.768 260.823 138.56 254.199 134.528C247.479 130.496 240.663 124.832 240.663 112.544C240.663 99.2 248.727 93.152 260.151 93.152C272.535 93.152 280.023 99.2 280.023 114.944H264.855C264.951 108.32 263.895 105.824 261.015 105.824C258.519 105.824 257.559 107.936 257.559 111.392C257.559 116.576 259.671 118.4 265.719 122.048C273.783 126.944 280.599 132.992 280.599 144.608C280.599 158.432 273.015 164.96 260.343 164.96ZM290.439 164V109.28H281.991V94.016H317.031V109.28H308.103V164H290.439ZM339.543 164.864C322.359 164.864 317.367 151.04 317.367 128.96C317.367 106.88 322.359 93.056 339.543 93.056C356.823 93.056 361.719 106.976 361.719 128.96C361.719 150.944 356.823 164.864 339.543 164.864ZM339.543 149.888C343.671 149.888 344.439 143.168 344.439 128.96C344.439 113.216 343.191 108.032 339.543 108.032C335.511 108.032 334.743 114.56 334.743 128.96C334.743 144.608 335.895 149.888 339.543 149.888ZM365.751 164V94.016H385.047C398.295 94.016 407.223 98.72 407.223 114.368C407.223 123.488 404.055 129.152 399.159 130.88V131.552C404.535 132.512 406.167 138.752 406.167 145.664V156.896C406.167 159.872 406.455 161.984 406.839 164H389.463C388.887 162.08 388.695 159.2 388.695 157.952V147.584C388.695 144.224 388.599 140.192 385.335 140.192H382.935V164H365.751ZM382.935 126.752H384.183C388.887 126.752 389.943 123.584 389.943 117.92C389.943 111.392 388.215 109.088 384.087 109.088H382.935V126.752ZM419.284 164V137.792L405.364 94.016H424.18L427.924 120.32H428.5L432.628 94.016H451.348L437.428 137.792V164H419.284Z" fill="white"/>
<path d="M70.982 202.713V188.313H80.082V190.003H72.762V194.513H78.882V196.203H72.762V201.023H80.082V202.713H70.982ZM81.2859 202.713L85.4159 197.253L81.3759 191.913H83.4959L86.4559 195.873L89.3859 191.913H91.5059L87.4659 197.253L91.6059 202.713H89.4759L86.4559 198.633L83.4159 202.713H81.2859ZM98.1686 203.013C97.1553 203.013 96.3019 202.763 95.6086 202.263C94.9153 201.756 94.3886 201.073 94.0286 200.213C93.6753 199.346 93.4986 198.376 93.4986 197.303C93.4986 196.216 93.6753 195.243 94.0286 194.383C94.3886 193.523 94.9153 192.846 95.6086 192.353C96.3086 191.859 97.1653 191.613 98.1786 191.613C99.1786 191.613 100.039 191.863 100.759 192.363C101.485 192.856 102.042 193.533 102.429 194.393C102.815 195.253 103.009 196.223 103.009 197.303C103.009 198.383 102.815 199.353 102.429 200.213C102.042 201.073 101.485 201.756 100.759 202.263C100.039 202.763 99.1753 203.013 98.1686 203.013ZM93.1986 207.513V191.913H94.7886V199.863H94.9886V207.513H93.1986ZM97.9486 201.383C98.6619 201.383 99.2519 201.203 99.7186 200.843C100.185 200.483 100.535 199.996 100.769 199.383C101.002 198.763 101.119 198.069 101.119 197.303C101.119 196.543 101.002 195.856 100.769 195.243C100.542 194.629 100.189 194.143 99.7086 193.783C99.2353 193.423 98.6319 193.243 97.8986 193.243C97.1986 193.243 96.6186 193.416 96.1586 193.763C95.6986 194.103 95.3553 194.579 95.1286 195.193C94.9019 195.799 94.7886 196.503 94.7886 197.303C94.7886 198.089 94.8986 198.793 95.1186 199.413C95.3453 200.026 95.6919 200.509 96.1586 200.863C96.6253 201.209 97.2219 201.383 97.9486 201.383ZM109.881 203.013C108.821 203.013 107.894 202.779 107.101 202.313C106.314 201.839 105.701 201.183 105.261 200.343C104.821 199.496 104.601 198.509 104.601 197.383C104.601 196.203 104.817 195.183 105.251 194.323C105.684 193.456 106.287 192.789 107.061 192.323C107.841 191.849 108.754 191.613 109.801 191.613C110.887 191.613 111.811 191.863 112.571 192.363C113.337 192.863 113.911 193.576 114.291 194.503C114.677 195.429 114.844 196.533 114.791 197.813H112.991V197.173C112.971 195.846 112.701 194.856 112.181 194.203C111.661 193.543 110.887 193.213 109.861 193.213C108.761 193.213 107.924 193.566 107.351 194.273C106.777 194.979 106.491 195.993 106.491 197.313C106.491 198.586 106.777 199.573 107.351 200.273C107.924 200.973 108.741 201.323 109.801 201.323C110.514 201.323 111.134 201.159 111.661 200.833C112.187 200.506 112.601 200.036 112.901 199.423L114.611 200.013C114.191 200.966 113.557 201.706 112.711 202.233C111.871 202.753 110.927 203.013 109.881 203.013ZM105.891 197.813V196.383H113.871V197.813H105.891ZM117.017 202.713V191.913H118.607V194.523L118.347 194.183C118.474 193.849 118.637 193.543 118.837 193.263C119.044 192.983 119.274 192.753 119.527 192.573C119.807 192.346 120.124 192.173 120.477 192.053C120.831 191.933 121.191 191.863 121.557 191.843C121.924 191.816 122.267 191.839 122.587 191.913V193.583C122.214 193.483 121.804 193.456 121.357 193.503C120.911 193.549 120.497 193.713 120.117 193.993C119.771 194.239 119.501 194.539 119.307 194.893C119.121 195.246 118.991 195.629 118.917 196.043C118.844 196.449 118.807 196.866 118.807 197.293V202.713H117.017ZM124.678 190.003V188.163H126.458V190.003H124.678ZM124.678 202.713V191.913H126.458V202.713H124.678ZM134.139 203.013C133.079 203.013 132.152 202.779 131.359 202.313C130.572 201.839 129.959 201.183 129.519 200.343C129.079 199.496 128.859 198.509 128.859 197.383C128.859 196.203 129.075 195.183 129.509 194.323C129.942 193.456 130.545 192.789 131.319 192.323C132.099 191.849 133.012 191.613 134.059 191.613C135.145 191.613 136.069 191.863 136.829 192.363C137.595 192.863 138.169 193.576 138.549 194.503C138.935 195.429 139.102 196.533 139.049 197.813H137.249V197.173C137.229 195.846 136.959 194.856 136.439 194.203C135.919 193.543 135.145 193.213 134.119 193.213C133.019 193.213 132.182 193.566 131.609 194.273C131.035 194.979 130.749 195.993 130.749 197.313C130.749 198.586 131.035 199.573 131.609 200.273C132.182 200.973 132.999 201.323 134.059 201.323C134.772 201.323 135.392 201.159 135.919 200.833C136.445 200.506 136.859 200.036 137.159 199.423L138.869 200.013C138.449 200.966 137.815 201.706 136.969 202.233C136.129 202.753 135.185 203.013 134.139 203.013ZM130.149 197.813V196.383H138.129V197.813H130.149ZM148.672 202.713V197.303C148.672 196.789 148.625 196.296 148.532 195.823C148.445 195.349 148.289 194.926 148.062 194.553C147.842 194.173 147.542 193.873 147.162 193.653C146.789 193.433 146.315 193.323 145.742 193.323C145.295 193.323 144.889 193.399 144.522 193.553C144.162 193.699 143.852 193.926 143.592 194.233C143.332 194.539 143.129 194.926 142.982 195.393C142.842 195.853 142.772 196.396 142.772 197.023L141.602 196.663C141.602 195.616 141.789 194.719 142.162 193.973C142.542 193.219 143.072 192.643 143.752 192.243C144.439 191.836 145.245 191.633 146.172 191.633C146.872 191.633 147.469 191.743 147.962 191.963C148.455 192.183 148.865 192.476 149.192 192.843C149.519 193.203 149.775 193.609 149.962 194.063C150.149 194.509 150.279 194.966 150.352 195.433C150.432 195.893 150.472 196.329 150.472 196.743V202.713H148.672ZM140.972 202.713V191.913H142.572V194.803H142.772V202.713H140.972ZM157.524 203.013C156.431 203.013 155.501 202.769 154.734 202.283C153.974 201.789 153.394 201.113 152.994 200.253C152.594 199.393 152.388 198.413 152.374 197.313C152.388 196.186 152.598 195.196 153.004 194.343C153.418 193.483 154.008 192.813 154.774 192.333C155.541 191.853 156.464 191.613 157.544 191.613C158.684 191.613 159.664 191.893 160.484 192.453C161.311 193.013 161.864 193.779 162.144 194.753L160.384 195.283C160.158 194.656 159.788 194.169 159.274 193.823C158.768 193.476 158.184 193.303 157.524 193.303C156.784 193.303 156.174 193.476 155.694 193.823C155.214 194.163 154.858 194.636 154.624 195.243C154.391 195.843 154.271 196.533 154.264 197.313C154.278 198.513 154.554 199.483 155.094 200.223C155.641 200.956 156.451 201.323 157.524 201.323C158.231 201.323 158.818 201.163 159.284 200.843C159.751 200.516 160.104 200.046 160.344 199.433L162.144 199.903C161.771 200.909 161.188 201.679 160.394 202.213C159.601 202.746 158.644 203.013 157.524 203.013ZM168.572 203.013C167.512 203.013 166.586 202.779 165.792 202.313C165.006 201.839 164.392 201.183 163.952 200.343C163.512 199.496 163.292 198.509 163.292 197.383C163.292 196.203 163.509 195.183 163.942 194.323C164.376 193.456 164.979 192.789 165.752 192.323C166.532 191.849 167.446 191.613 168.492 191.613C169.579 191.613 170.502 191.863 171.262 192.363C172.029 192.863 172.602 193.576 172.982 194.503C173.369 195.429 173.536 196.533 173.482 197.813H171.682V197.173C171.662 195.846 171.392 194.856 170.872 194.203C170.352 193.543 169.579 193.213 168.552 193.213C167.452 193.213 166.616 193.566 166.042 194.273C165.469 194.979 165.182 195.993 165.182 197.313C165.182 198.586 165.469 199.573 166.042 200.273C166.616 200.973 167.432 201.323 168.492 201.323C169.206 201.323 169.826 201.159 170.352 200.833C170.879 200.506 171.292 200.036 171.592 199.423L173.302 200.013C172.882 200.966 172.249 201.706 171.402 202.233C170.562 202.753 169.619 203.013 168.572 203.013ZM164.582 197.813V196.383H172.562V197.813H164.582ZM185.743 202.713C185.103 202.839 184.469 202.889 183.843 202.863C183.223 202.843 182.669 202.719 182.183 202.493C181.696 202.259 181.326 201.899 181.073 201.413C180.859 200.986 180.743 200.556 180.723 200.123C180.709 199.683 180.703 199.186 180.703 198.633V188.913H182.483V198.553C182.483 198.993 182.486 199.369 182.493 199.683C182.506 199.996 182.576 200.266 182.703 200.493C182.943 200.919 183.323 201.169 183.843 201.243C184.369 201.316 185.003 201.296 185.743 201.183V202.713ZM178.513 193.383V191.913H185.743V193.383H178.513ZM195.625 202.713V197.303C195.625 196.789 195.578 196.296 195.485 195.823C195.398 195.349 195.242 194.926 195.015 194.553C194.795 194.173 194.495 193.873 194.115 193.653C193.742 193.433 193.268 193.323 192.695 193.323C192.248 193.323 191.842 193.399 191.475 193.553C191.115 193.699 190.805 193.926 190.545 194.233C190.285 194.539 190.082 194.926 189.935 195.393C189.795 195.853 189.725 196.396 189.725 197.023L188.555 196.663C188.555 195.616 188.742 194.719 189.115 193.973C189.495 193.219 190.025 192.643 190.705 192.243C191.392 191.836 192.198 191.633 193.125 191.633C193.825 191.633 194.422 191.743 194.915 191.963C195.408 192.183 195.818 192.476 196.145 192.843C196.472 193.203 196.728 193.609 196.915 194.063C197.102 194.509 197.232 194.966 197.305 195.433C197.385 195.893 197.425 196.329 197.425 196.743V202.713H195.625ZM187.925 202.713V188.313H189.525V196.263H189.725V202.713H187.925ZM204.705 203.013C203.645 203.013 202.718 202.779 201.925 202.313C201.138 201.839 200.525 201.183 200.085 200.343C199.645 199.496 199.425 198.509 199.425 197.383C199.425 196.203 199.642 195.183 200.075 194.323C200.508 193.456 201.112 192.789 201.885 192.323C202.665 191.849 203.578 191.613 204.625 191.613C205.712 191.613 206.635 191.863 207.395 192.363C208.162 192.863 208.735 193.576 209.115 194.503C209.502 195.429 209.668 196.533 209.615 197.813H207.815V197.173C207.795 195.846 207.525 194.856 207.005 194.203C206.485 193.543 205.712 193.213 204.685 193.213C203.585 193.213 202.748 193.566 202.175 194.273C201.602 194.979 201.315 195.993 201.315 197.313C201.315 198.586 201.602 199.573 202.175 200.273C202.748 200.973 203.565 201.323 204.625 201.323C205.338 201.323 205.958 201.159 206.485 200.833C207.012 200.506 207.425 200.036 207.725 199.423L209.435 200.013C209.015 200.966 208.382 201.706 207.535 202.233C206.695 202.753 205.752 203.013 204.705 203.013ZM200.715 197.813V196.383H208.695V197.813H200.715ZM218.445 203.003C217.439 203.003 216.585 202.729 215.885 202.183C215.185 201.636 214.705 200.903 214.445 199.983L216.215 199.563C216.322 200.049 216.579 200.463 216.985 200.803C217.399 201.143 217.872 201.313 218.405 201.313C218.752 201.313 219.105 201.229 219.465 201.063C219.825 200.889 220.102 200.609 220.295 200.223C220.429 199.956 220.505 199.663 220.525 199.343C220.545 199.016 220.555 198.633 220.555 198.193V188.313H222.355V198.193C222.355 198.606 222.352 198.976 222.345 199.303C222.345 199.629 222.312 199.943 222.245 200.243C222.185 200.536 222.065 200.836 221.885 201.143C221.525 201.776 221.042 202.246 220.435 202.553C219.835 202.853 219.172 203.003 218.445 203.003ZM229.957 203.013C228.884 203.013 227.957 202.769 227.177 202.283C226.404 201.796 225.807 201.123 225.387 200.263C224.967 199.403 224.757 198.416 224.757 197.303C224.757 196.169 224.97 195.176 225.397 194.323C225.824 193.469 226.427 192.806 227.207 192.333C227.987 191.853 228.904 191.613 229.957 191.613C231.037 191.613 231.967 191.856 232.747 192.343C233.527 192.823 234.124 193.493 234.537 194.353C234.957 195.206 235.167 196.189 235.167 197.303C235.167 198.429 234.957 199.423 234.537 200.283C234.117 201.136 233.517 201.806 232.737 202.293C231.957 202.773 231.03 203.013 229.957 203.013ZM229.957 201.323C231.077 201.323 231.91 200.949 232.457 200.203C233.004 199.456 233.277 198.489 233.277 197.303C233.277 196.083 233 195.113 232.447 194.393C231.894 193.666 231.064 193.303 229.957 193.303C229.204 193.303 228.584 193.473 228.097 193.813C227.61 194.153 227.247 194.623 227.007 195.223C226.767 195.823 226.647 196.516 226.647 197.303C226.647 198.516 226.927 199.489 227.487 200.223C228.047 200.956 228.87 201.323 229.957 201.323ZM238.478 207.513L240.568 201.833L240.598 203.513L235.878 191.913H237.748L241.448 201.243H240.808L244.278 191.913H246.088L240.208 207.513H238.478ZM256.344 203.013C255.27 203.013 254.344 202.769 253.564 202.283C252.79 201.796 252.194 201.123 251.774 200.263C251.354 199.403 251.144 198.416 251.144 197.303C251.144 196.169 251.357 195.176 251.784 194.323C252.21 193.469 252.814 192.806 253.594 192.333C254.374 191.853 255.29 191.613 256.344 191.613C257.424 191.613 258.354 191.856 259.134 192.343C259.914 192.823 260.51 193.493 260.924 194.353C261.344 195.206 261.554 196.189 261.554 197.303C261.554 198.429 261.344 199.423 260.924 200.283C260.504 201.136 259.904 201.806 259.124 202.293C258.344 202.773 257.417 203.013 256.344 203.013ZM256.344 201.323C257.464 201.323 258.297 200.949 258.844 200.203C259.39 199.456 259.664 198.489 259.664 197.303C259.664 196.083 259.387 195.113 258.834 194.393C258.28 193.666 257.45 193.303 256.344 193.303C255.59 193.303 254.97 193.473 254.484 193.813C253.997 194.153 253.634 194.623 253.394 195.223C253.154 195.823 253.034 196.516 253.034 197.303C253.034 198.516 253.314 199.489 253.874 200.223C254.434 200.956 255.257 201.323 256.344 201.323ZM264.785 202.713V191.323C264.785 191.043 264.799 190.759 264.825 190.473C264.852 190.179 264.912 189.896 265.005 189.623C265.099 189.343 265.252 189.086 265.465 188.853C265.712 188.579 265.982 188.386 266.275 188.273C266.569 188.153 266.865 188.079 267.165 188.053C267.472 188.026 267.762 188.013 268.035 188.013H269.405V189.493H268.135C267.609 189.493 267.215 189.623 266.955 189.883C266.695 190.136 266.565 190.523 266.565 191.043V202.713H264.785ZM262.955 193.383V191.913H269.405V193.383H262.955ZM280.925 203.013C279.492 203.013 278.275 202.696 277.275 202.063C276.275 201.429 275.512 200.549 274.985 199.423C274.465 198.296 274.205 196.993 274.205 195.513C274.205 194.033 274.465 192.729 274.985 191.603C275.512 190.476 276.275 189.596 277.275 188.963C278.275 188.329 279.492 188.013 280.925 188.013C282.365 188.013 283.585 188.329 284.585 188.963C285.585 189.596 286.345 190.476 286.865 191.603C287.385 192.729 287.645 194.033 287.645 195.513C287.645 196.993 287.385 198.296 286.865 199.423C286.345 200.549 285.585 201.429 284.585 202.063C283.585 202.696 282.365 203.013 280.925 203.013ZM280.925 201.313C281.999 201.319 282.892 201.079 283.605 200.593C284.325 200.099 284.862 199.416 285.215 198.543C285.575 197.669 285.755 196.659 285.755 195.513C285.755 194.359 285.575 193.349 285.215 192.483C284.862 191.616 284.325 190.939 283.605 190.453C282.892 189.966 281.999 189.719 280.925 189.713C279.852 189.706 278.959 189.946 278.245 190.433C277.539 190.919 277.005 191.599 276.645 192.473C276.285 193.346 276.102 194.359 276.095 195.513C276.089 196.659 276.265 197.666 276.625 198.533C276.985 199.399 277.522 200.079 278.235 200.573C278.955 201.059 279.852 201.306 280.925 201.313ZM297.344 202.713V197.303C297.344 196.789 297.297 196.296 297.204 195.823C297.117 195.349 296.961 194.926 296.734 194.553C296.514 194.173 296.214 193.873 295.834 193.653C295.461 193.433 294.987 193.323 294.414 193.323C293.967 193.323 293.561 193.399 293.194 193.553C292.834 193.699 292.524 193.926 292.264 194.233C292.004 194.539 291.801 194.926 291.654 195.393C291.514 195.853 291.444 196.396 291.444 197.023L290.274 196.663C290.274 195.616 290.461 194.719 290.834 193.973C291.214 193.219 291.744 192.643 292.424 192.243C293.111 191.836 293.917 191.633 294.844 191.633C295.544 191.633 296.141 191.743 296.634 191.963C297.127 192.183 297.537 192.476 297.864 192.843C298.191 193.203 298.447 193.609 298.634 194.063C298.821 194.509 298.951 194.966 299.024 195.433C299.104 195.893 299.144 196.329 299.144 196.743V202.713H297.344ZM289.644 202.713V191.913H291.244V194.803H291.444V202.713H289.644ZM306.326 203.013C305.266 203.013 304.339 202.779 303.546 202.313C302.759 201.839 302.146 201.183 301.706 200.343C301.266 199.496 301.046 198.509 301.046 197.383C301.046 196.203 301.263 195.183 301.696 194.323C302.129 193.456 302.733 192.789 303.506 192.323C304.286 191.849 305.199 191.613 306.246 191.613C307.333 191.613 308.256 191.863 309.016 192.363C309.783 192.863 310.356 193.576 310.736 194.503C311.123 195.429 311.289 196.533 311.236 197.813H309.436V197.173C309.416 195.846 309.146 194.856 308.626 194.203C308.106 193.543 307.333 193.213 306.306 193.213C305.206 193.213 304.369 193.566 303.796 194.273C303.223 194.979 302.936 195.993 302.936 197.313C302.936 198.586 303.223 199.573 303.796 200.273C304.369 200.973 305.186 201.323 306.246 201.323C306.959 201.323 307.579 201.159 308.106 200.833C308.633 200.506 309.046 200.036 309.346 199.423L311.056 200.013C310.636 200.966 310.003 201.706 309.156 202.233C308.316 202.753 307.373 203.013 306.326 203.013ZM302.336 197.813V196.383H310.316V197.813H302.336ZM313.263 197.143V195.673H319.263V197.143H313.263ZM326.461 203.013C325.388 203.013 324.461 202.769 323.681 202.283C322.908 201.796 322.311 201.123 321.891 200.263C321.471 199.403 321.261 198.416 321.261 197.303C321.261 196.169 321.474 195.176 321.901 194.323C322.328 193.469 322.931 192.806 323.711 192.333C324.491 191.853 325.408 191.613 326.461 191.613C327.541 191.613 328.471 191.856 329.251 192.343C330.031 192.823 330.628 193.493 331.041 194.353C331.461 195.206 331.671 196.189 331.671 197.303C331.671 198.429 331.461 199.423 331.041 200.283C330.621 201.136 330.021 201.806 329.241 202.293C328.461 202.773 327.534 203.013 326.461 203.013ZM326.461 201.323C327.581 201.323 328.414 200.949 328.961 200.203C329.508 199.456 329.781 198.489 329.781 197.303C329.781 196.083 329.504 195.113 328.951 194.393C328.398 193.666 327.568 193.303 326.461 193.303C325.708 193.303 325.088 193.473 324.601 193.813C324.114 194.153 323.751 194.623 323.511 195.223C323.271 195.823 323.151 196.516 323.151 197.303C323.151 198.516 323.431 199.489 323.991 200.223C324.551 200.956 325.374 201.323 326.461 201.323ZM341.563 202.713V197.303C341.563 196.789 341.516 196.296 341.423 195.823C341.336 195.349 341.179 194.926 340.953 194.553C340.733 194.173 340.433 193.873 340.053 193.653C339.679 193.433 339.206 193.323 338.633 193.323C338.186 193.323 337.779 193.399 337.413 193.553C337.053 193.699 336.743 193.926 336.483 194.233C336.223 194.539 336.019 194.926 335.873 195.393C335.733 195.853 335.663 196.396 335.663 197.023L334.493 196.663C334.493 195.616 334.679 194.719 335.053 193.973C335.433 193.219 335.963 192.643 336.643 192.243C337.329 191.836 338.136 191.633 339.063 191.633C339.763 191.633 340.359 191.743 340.853 191.963C341.346 192.183 341.756 192.476 342.083 192.843C342.409 193.203 342.666 193.609 342.853 194.063C343.039 194.509 343.169 194.966 343.243 195.433C343.323 195.893 343.363 196.329 343.363 196.743V202.713H341.563ZM333.863 202.713V191.913H335.463V194.803H335.663V202.713H333.863ZM345.763 197.143V195.673H351.763V197.143H345.763ZM360.281 203.013C358.848 203.013 357.631 202.696 356.631 202.063C355.631 201.429 354.868 200.549 354.341 199.423C353.821 198.296 353.561 196.993 353.561 195.513C353.561 194.033 353.821 192.729 354.341 191.603C354.868 190.476 355.631 189.596 356.631 188.963C357.631 188.329 358.848 188.013 360.281 188.013C361.721 188.013 362.941 188.329 363.941 188.963C364.941 189.596 365.701 190.476 366.221 191.603C366.741 192.729 367.001 194.033 367.001 195.513C367.001 196.993 366.741 198.296 366.221 199.423C365.701 200.549 364.941 201.429 363.941 202.063C362.941 202.696 361.721 203.013 360.281 203.013ZM360.281 201.313C361.354 201.319 362.248 201.079 362.961 200.593C363.681 200.099 364.218 199.416 364.571 198.543C364.931 197.669 365.111 196.659 365.111 195.513C365.111 194.359 364.931 193.349 364.571 192.483C364.218 191.616 363.681 190.939 362.961 190.453C362.248 189.966 361.354 189.719 360.281 189.713C359.208 189.706 358.314 189.946 357.601 190.433C356.894 190.919 356.361 191.599 356.001 192.473C355.641 193.346 355.458 194.359 355.451 195.513C355.444 196.659 355.621 197.666 355.981 198.533C356.341 199.399 356.878 200.079 357.591 200.573C358.311 201.059 359.208 201.306 360.281 201.313ZM376.699 202.713V197.303C376.699 196.789 376.653 196.296 376.559 195.823C376.473 195.349 376.316 194.926 376.089 194.553C375.869 194.173 375.569 193.873 375.189 193.653C374.816 193.433 374.343 193.323 373.769 193.323C373.323 193.323 372.916 193.399 372.549 193.553C372.189 193.699 371.879 193.926 371.619 194.233C371.359 194.539 371.156 194.926 371.009 195.393C370.869 195.853 370.799 196.396 370.799 197.023L369.629 196.663C369.629 195.616 369.816 194.719 370.189 193.973C370.569 193.219 371.099 192.643 371.779 192.243C372.466 191.836 373.273 191.633 374.199 191.633C374.899 191.633 375.496 191.743 375.989 191.963C376.483 192.183 376.893 192.476 377.219 192.843C377.546 193.203 377.803 193.609 377.989 194.063C378.176 194.509 378.306 194.966 378.379 195.433C378.459 195.893 378.499 196.329 378.499 196.743V202.713H376.699ZM368.999 202.713V191.913H370.599V194.803H370.799V202.713H368.999ZM385.682 203.013C384.622 203.013 383.695 202.779 382.902 202.313C382.115 201.839 381.502 201.183 381.062 200.343C380.622 199.496 380.402 198.509 380.402 197.383C380.402 196.203 380.618 195.183 381.052 194.323C381.485 193.456 382.088 192.789 382.862 192.323C383.642 191.849 384.555 191.613 385.602 191.613C386.688 191.613 387.612 191.863 388.372 192.363C389.138 192.863 389.712 193.576 390.092 194.503C390.478 195.429 390.645 196.533 390.592 197.813H388.792V197.173C388.772 195.846 388.502 194.856 387.982 194.203C387.462 193.543 386.688 193.213 385.662 193.213C384.562 193.213 383.725 193.566 383.152 194.273C382.578 194.979 382.292 195.993 382.292 197.313C382.292 198.586 382.578 199.573 383.152 200.273C383.725 200.973 384.542 201.323 385.602 201.323C386.315 201.323 386.935 201.159 387.462 200.833C387.988 200.506 388.402 200.036 388.702 199.423L390.412 200.013C389.992 200.966 389.358 201.706 388.512 202.233C387.672 202.753 386.728 203.013 385.682 203.013ZM381.692 197.813V196.383H389.672V197.813H381.692ZM95.6618 230.013C94.2285 230.013 93.0118 229.696 92.0118 229.063C91.0118 228.429 90.2485 227.549 89.7218 226.423C89.2018 225.296 88.9418 223.993 88.9418 222.513C88.9418 221.033 89.2018 219.729 89.7218 218.603C90.2485 217.476 91.0118 216.596 92.0118 215.963C93.0118 215.329 94.2285 215.013 95.6618 215.013C97.3285 215.013 98.6985 215.436 99.7718 216.283C100.852 217.129 101.595 218.269 102.002 219.703L100.192 220.183C99.8985 219.109 99.3751 218.263 98.6218 217.643C97.8685 217.023 96.8818 216.713 95.6618 216.713C94.5885 216.713 93.6951 216.956 92.9818 217.443C92.2685 217.929 91.7318 218.609 91.3718 219.483C91.0118 220.349 90.8285 221.359 90.8218 222.513C90.8151 223.659 90.9918 224.669 91.3518 225.543C91.7118 226.409 92.2518 227.089 92.9718 227.583C93.6918 228.069 94.5885 228.313 95.6618 228.313C96.8818 228.313 97.8685 228.003 98.6218 227.383C99.3751 226.756 99.8985 225.909 100.192 224.843L102.002 225.323C101.595 226.749 100.852 227.889 99.7718 228.743C98.6985 229.589 97.3285 230.013 95.6618 230.013ZM108.795 230.013C107.722 230.013 106.795 229.769 106.015 229.283C105.242 228.796 104.645 228.123 104.225 227.263C103.805 226.403 103.595 225.416 103.595 224.303C103.595 223.169 103.808 222.176 104.235 221.323C104.662 220.469 105.265 219.806 106.045 219.333C106.825 218.853 107.742 218.613 108.795 218.613C109.875 218.613 110.805 218.856 111.585 219.343C112.365 219.823 112.962 220.493 113.375 221.353C113.795 222.206 114.005 223.189 114.005 224.303C114.005 225.429 113.795 226.423 113.375 227.283C112.955 228.136 112.355 228.806 111.575 229.293C110.795 229.773 109.868 230.013 108.795 230.013ZM108.795 228.323C109.915 228.323 110.748 227.949 111.295 227.203C111.842 226.456 112.115 225.489 112.115 224.303C112.115 223.083 111.838 222.113 111.285 221.393C110.732 220.666 109.902 220.303 108.795 220.303C108.042 220.303 107.422 220.473 106.935 220.813C106.448 221.153 106.085 221.623 105.845 222.223C105.605 222.823 105.485 223.516 105.485 224.303C105.485 225.516 105.765 226.489 106.325 227.223C106.885 227.956 107.708 228.323 108.795 228.323ZM123.897 229.713V224.303C123.897 223.789 123.85 223.296 123.757 222.823C123.67 222.349 123.513 221.926 123.287 221.553C123.067 221.173 122.767 220.873 122.387 220.653C122.013 220.433 121.54 220.323 120.967 220.323C120.52 220.323 120.113 220.399 119.747 220.553C119.387 220.699 119.077 220.926 118.817 221.233C118.557 221.539 118.353 221.926 118.207 222.393C118.067 222.853 117.997 223.396 117.997 224.023L116.827 223.663C116.827 222.616 117.013 221.719 117.387 220.973C117.767 220.219 118.297 219.643 118.977 219.243C119.663 218.836 120.47 218.633 121.397 218.633C122.097 218.633 122.693 218.743 123.187 218.963C123.68 219.183 124.09 219.476 124.417 219.843C124.743 220.203 125 220.609 125.187 221.063C125.373 221.509 125.503 221.966 125.577 222.433C125.657 222.893 125.697 223.329 125.697 223.743V229.713H123.897ZM116.197 229.713V218.913H117.797V221.803H117.997V229.713H116.197ZM131.216 229.713L127.296 218.913H129.096L132.126 227.443L135.146 218.913H136.956L133.036 229.713H131.216ZM143.055 230.013C141.995 230.013 141.068 229.779 140.275 229.313C139.488 228.839 138.875 228.183 138.435 227.343C137.995 226.496 137.775 225.509 137.775 224.383C137.775 223.203 137.991 222.183 138.425 221.323C138.858 220.456 139.461 219.789 140.235 219.323C141.015 218.849 141.928 218.613 142.975 218.613C144.061 218.613 144.985 218.863 145.745 219.363C146.511 219.863 147.085 220.576 147.465 221.503C147.851 222.429 148.018 223.533 147.965 224.813H146.165V224.173C146.145 222.846 145.875 221.856 145.355 221.203C144.835 220.543 144.061 220.213 143.035 220.213C141.935 220.213 141.098 220.566 140.525 221.273C139.951 221.979 139.665 222.993 139.665 224.313C139.665 225.586 139.951 226.573 140.525 227.273C141.098 227.973 141.915 228.323 142.975 228.323C143.688 228.323 144.308 228.159 144.835 227.833C145.361 227.506 145.775 227.036 146.075 226.423L147.785 227.013C147.365 227.966 146.731 228.706 145.885 229.233C145.045 229.753 144.101 230.013 143.055 230.013ZM139.065 224.813V223.383H147.045V224.813H139.065ZM150.191 229.713V218.913H151.781V221.523L151.521 221.183C151.648 220.849 151.811 220.543 152.011 220.263C152.218 219.983 152.448 219.753 152.701 219.573C152.981 219.346 153.298 219.173 153.651 219.053C154.004 218.933 154.364 218.863 154.731 218.843C155.098 218.816 155.441 218.839 155.761 218.913V220.583C155.388 220.483 154.978 220.456 154.531 220.503C154.084 220.549 153.671 220.713 153.291 220.993C152.944 221.239 152.674 221.539 152.481 221.893C152.294 222.246 152.164 222.629 152.091 223.043C152.018 223.449 151.981 223.866 151.981 224.293V229.713H150.191ZM161.341 230.003C160.055 230.003 158.998 229.723 158.171 229.163C157.351 228.596 156.848 227.806 156.661 226.793L158.481 226.503C158.628 227.089 158.965 227.556 159.491 227.903C160.018 228.243 160.671 228.413 161.451 228.413C162.191 228.413 162.771 228.259 163.191 227.953C163.611 227.646 163.821 227.229 163.821 226.703C163.821 226.396 163.751 226.149 163.611 225.963C163.471 225.769 163.181 225.589 162.741 225.423C162.308 225.256 161.651 225.056 160.771 224.823C159.818 224.569 159.068 224.306 158.521 224.033C157.975 223.759 157.585 223.443 157.351 223.083C157.118 222.723 157.001 222.286 157.001 221.773C157.001 221.139 157.175 220.586 157.521 220.113C157.868 219.633 158.351 219.263 158.971 219.003C159.598 218.743 160.325 218.613 161.151 218.613C161.971 218.613 162.705 218.743 163.351 219.003C163.998 219.263 164.518 219.633 164.911 220.113C165.311 220.586 165.548 221.139 165.621 221.773L163.801 222.103C163.715 221.523 163.435 221.066 162.961 220.733C162.495 220.399 161.891 220.223 161.151 220.203C160.451 220.176 159.881 220.299 159.441 220.573C159.008 220.846 158.791 221.216 158.791 221.683C158.791 221.943 158.871 222.166 159.031 222.353C159.198 222.539 159.501 222.716 159.941 222.883C160.388 223.049 161.035 223.239 161.881 223.453C162.835 223.693 163.585 223.956 164.131 224.243C164.685 224.523 165.078 224.856 165.311 225.243C165.545 225.623 165.661 226.093 165.661 226.653C165.661 227.693 165.278 228.513 164.511 229.113C163.745 229.706 162.688 230.003 161.341 230.003ZM170.937 230.013C170.13 230.013 169.453 229.866 168.907 229.573C168.367 229.273 167.957 228.879 167.677 228.393C167.403 227.906 167.267 227.373 167.267 226.793C167.267 226.226 167.373 225.736 167.587 225.323C167.807 224.903 168.113 224.556 168.507 224.283C168.9 224.003 169.37 223.783 169.917 223.623C170.43 223.483 171.003 223.363 171.637 223.263C172.277 223.156 172.923 223.059 173.577 222.973C174.23 222.886 174.84 222.803 175.407 222.723L174.767 223.093C174.787 222.133 174.593 221.423 174.187 220.963C173.787 220.503 173.093 220.273 172.107 220.273C171.453 220.273 170.88 220.423 170.387 220.723C169.9 221.016 169.557 221.496 169.357 222.163L167.667 221.653C167.927 220.706 168.43 219.963 169.177 219.423C169.923 218.883 170.907 218.613 172.127 218.613C173.107 218.613 173.947 218.789 174.647 219.143C175.353 219.489 175.86 220.016 176.167 220.723C176.32 221.056 176.417 221.419 176.457 221.813C176.497 222.199 176.517 222.606 176.517 223.033V229.713H174.937V227.123L175.307 227.363C174.9 228.236 174.33 228.896 173.597 229.343C172.87 229.789 171.983 230.013 170.937 230.013ZM171.207 228.523C171.847 228.523 172.4 228.409 172.867 228.183C173.34 227.949 173.72 227.646 174.007 227.273C174.293 226.893 174.48 226.479 174.567 226.033C174.667 225.699 174.72 225.329 174.727 224.923C174.74 224.509 174.747 224.193 174.747 223.973L175.367 224.243C174.787 224.323 174.217 224.399 173.657 224.473C173.097 224.546 172.567 224.626 172.067 224.713C171.567 224.793 171.117 224.889 170.717 225.003C170.423 225.096 170.147 225.216 169.887 225.363C169.633 225.509 169.427 225.699 169.267 225.933C169.113 226.159 169.037 226.443 169.037 226.783C169.037 227.076 169.11 227.356 169.257 227.623C169.41 227.889 169.643 228.106 169.957 228.273C170.277 228.439 170.693 228.523 171.207 228.523ZM185.147 229.713C184.507 229.839 183.873 229.889 183.247 229.863C182.627 229.843 182.073 229.719 181.587 229.493C181.1 229.259 180.73 228.899 180.477 228.413C180.263 227.986 180.147 227.556 180.127 227.123C180.113 226.683 180.107 226.186 180.107 225.633V215.913H181.887V225.553C181.887 225.993 181.89 226.369 181.897 226.683C181.91 226.996 181.98 227.266 182.107 227.493C182.347 227.919 182.727 228.169 183.247 228.243C183.773 228.316 184.407 228.296 185.147 228.183V229.713ZM177.917 220.383V218.913H185.147V220.383H177.917ZM187.539 217.003V215.163H189.319V217.003H187.539ZM187.539 229.713V218.913H189.319V229.713H187.539ZM196.92 230.013C195.847 230.013 194.92 229.769 194.14 229.283C193.367 228.796 192.77 228.123 192.35 227.263C191.93 226.403 191.72 225.416 191.72 224.303C191.72 223.169 191.933 222.176 192.36 221.323C192.787 220.469 193.39 219.806 194.17 219.333C194.95 218.853 195.867 218.613 196.92 218.613C198 218.613 198.93 218.856 199.71 219.343C200.49 219.823 201.087 220.493 201.5 221.353C201.92 222.206 202.13 223.189 202.13 224.303C202.13 225.429 201.92 226.423 201.5 227.283C201.08 228.136 200.48 228.806 199.7 229.293C198.92 229.773 197.993 230.013 196.92 230.013ZM196.92 228.323C198.04 228.323 198.873 227.949 199.42 227.203C199.967 226.456 200.24 225.489 200.24 224.303C200.24 223.083 199.963 222.113 199.41 221.393C198.857 220.666 198.027 220.303 196.92 220.303C196.167 220.303 195.547 220.473 195.06 220.813C194.573 221.153 194.21 221.623 193.97 222.223C193.73 222.823 193.61 223.516 193.61 224.303C193.61 225.516 193.89 226.489 194.45 227.223C195.01 227.956 195.833 228.323 196.92 228.323ZM212.022 229.713V224.303C212.022 223.789 211.975 223.296 211.882 222.823C211.795 222.349 211.638 221.926 211.412 221.553C211.192 221.173 210.892 220.873 210.512 220.653C210.138 220.433 209.665 220.323 209.092 220.323C208.645 220.323 208.238 220.399 207.872 220.553C207.512 220.699 207.202 220.926 206.942 221.233C206.682 221.539 206.478 221.926 206.332 222.393C206.192 222.853 206.122 223.396 206.122 224.023L204.952 223.663C204.952 222.616 205.138 221.719 205.512 220.973C205.892 220.219 206.422 219.643 207.102 219.243C207.788 218.836 208.595 218.633 209.522 218.633C210.222 218.633 210.818 218.743 211.312 218.963C211.805 219.183 212.215 219.476 212.542 219.843C212.868 220.203 213.125 220.609 213.312 221.063C213.498 221.509 213.628 221.966 213.702 222.433C213.782 222.893 213.822 223.329 213.822 223.743V229.713H212.022ZM204.322 229.713V218.913H205.922V221.803H206.122V229.713H204.322ZM220.501 230.003C219.215 230.003 218.158 229.723 217.331 229.163C216.511 228.596 216.008 227.806 215.821 226.793L217.641 226.503C217.788 227.089 218.125 227.556 218.651 227.903C219.178 228.243 219.831 228.413 220.611 228.413C221.351 228.413 221.931 228.259 222.351 227.953C222.771 227.646 222.981 227.229 222.981 226.703C222.981 226.396 222.911 226.149 222.771 225.963C222.631 225.769 222.341 225.589 221.901 225.423C221.468 225.256 220.811 225.056 219.931 224.823C218.978 224.569 218.228 224.306 217.681 224.033C217.135 223.759 216.745 223.443 216.511 223.083C216.278 222.723 216.161 222.286 216.161 221.773C216.161 221.139 216.335 220.586 216.681 220.113C217.028 219.633 217.511 219.263 218.131 219.003C218.758 218.743 219.485 218.613 220.311 218.613C221.131 218.613 221.865 218.743 222.511 219.003C223.158 219.263 223.678 219.633 224.071 220.113C224.471 220.586 224.708 221.139 224.781 221.773L222.961 222.103C222.875 221.523 222.595 221.066 222.121 220.733C221.655 220.399 221.051 220.223 220.311 220.203C219.611 220.176 219.041 220.299 218.601 220.573C218.168 220.846 217.951 221.216 217.951 221.683C217.951 221.943 218.031 222.166 218.191 222.353C218.358 222.539 218.661 222.716 219.101 222.883C219.548 223.049 220.195 223.239 221.041 223.453C221.995 223.693 222.745 223.956 223.291 224.243C223.845 224.523 224.238 224.856 224.471 225.243C224.705 225.623 224.821 226.093 224.821 226.653C224.821 227.693 224.438 228.513 223.671 229.113C222.905 229.706 221.848 230.003 220.501 230.003ZM233.331 229.713L230.031 218.903L231.801 218.913L234.211 226.813L236.641 218.913H238.211L240.631 226.813L243.051 218.913H244.811L241.511 229.713H240.031L237.421 221.503L234.811 229.713H233.331ZM246.817 217.003V215.163H248.597V217.003H246.817ZM246.817 229.713V218.913H248.597V229.713H246.817ZM257.627 229.713C256.987 229.839 256.354 229.889 255.727 229.863C255.107 229.843 254.554 229.719 254.067 229.493C253.581 229.259 253.211 228.899 252.957 228.413C252.744 227.986 252.627 227.556 252.607 227.123C252.594 226.683 252.587 226.186 252.587 225.633V215.913H254.367V225.553C254.367 225.993 254.371 226.369 254.377 226.683C254.391 226.996 254.461 227.266 254.587 227.493C254.827 227.919 255.207 228.169 255.727 228.243C256.254 228.316 256.887 228.296 257.627 228.183V229.713ZM250.397 220.383V218.913H257.627V220.383H250.397ZM267.51 229.713V224.303C267.51 223.789 267.463 223.296 267.37 222.823C267.283 222.349 267.127 221.926 266.9 221.553C266.68 221.173 266.38 220.873 266 220.653C265.627 220.433 265.153 220.323 264.58 220.323C264.133 220.323 263.727 220.399 263.36 220.553C263 220.699 262.69 220.926 262.43 221.233C262.17 221.539 261.967 221.926 261.82 222.393C261.68 222.853 261.61 223.396 261.61 224.023L260.44 223.663C260.44 222.616 260.627 221.719 261 220.973C261.38 220.219 261.91 219.643 262.59 219.243C263.277 218.836 264.083 218.633 265.01 218.633C265.71 218.633 266.307 218.743 266.8 218.963C267.293 219.183 267.703 219.476 268.03 219.843C268.357 220.203 268.613 220.609 268.8 221.063C268.987 221.509 269.117 221.966 269.19 222.433C269.27 222.893 269.31 223.329 269.31 223.743V229.713H267.51ZM259.81 229.713V215.313H261.41V223.263H261.61V229.713H259.81ZM281.024 230.013C280.004 230.013 279.084 229.839 278.264 229.493C277.45 229.146 276.777 228.653 276.244 228.013C275.717 227.366 275.374 226.603 275.214 225.723L277.054 225.433C277.287 226.339 277.77 227.049 278.504 227.563C279.244 228.069 280.114 228.323 281.114 228.323C281.76 228.323 282.344 228.223 282.864 228.023C283.39 227.816 283.807 227.523 284.114 227.143C284.42 226.763 284.574 226.313 284.574 225.793C284.574 225.473 284.517 225.199 284.404 224.973C284.297 224.739 284.147 224.543 283.954 224.383C283.767 224.216 283.554 224.076 283.314 223.963C283.074 223.849 282.824 223.756 282.564 223.683L278.894 222.593C278.494 222.473 278.107 222.323 277.734 222.143C277.36 221.956 277.027 221.726 276.734 221.453C276.44 221.173 276.207 220.839 276.034 220.453C275.86 220.059 275.774 219.596 275.774 219.063C275.774 218.209 275.994 217.483 276.434 216.883C276.88 216.276 277.484 215.813 278.244 215.493C279.004 215.173 279.86 215.016 280.814 215.023C281.78 215.029 282.644 215.203 283.404 215.543C284.17 215.876 284.804 216.356 285.304 216.983C285.81 217.609 286.15 218.359 286.324 219.233L284.434 219.563C284.334 218.976 284.11 218.473 283.764 218.053C283.424 217.626 282.997 217.299 282.484 217.073C281.97 216.839 281.407 216.719 280.794 216.713C280.207 216.706 279.677 216.799 279.204 216.993C278.73 217.186 278.354 217.456 278.074 217.803C277.794 218.143 277.654 218.536 277.654 218.983C277.654 219.423 277.78 219.779 278.034 220.053C278.287 220.319 278.597 220.533 278.964 220.693C279.337 220.846 279.7 220.973 280.054 221.073L282.794 221.863C283.107 221.949 283.467 222.069 283.874 222.223C284.287 222.376 284.687 222.593 285.074 222.873C285.46 223.146 285.78 223.513 286.034 223.973C286.287 224.426 286.414 224.999 286.414 225.693C286.414 226.386 286.274 227.003 285.994 227.543C285.72 228.083 285.337 228.536 284.844 228.903C284.35 229.263 283.777 229.536 283.124 229.723C282.47 229.916 281.77 230.013 281.024 230.013ZM294.541 229.713C293.901 229.839 293.268 229.889 292.641 229.863C292.021 229.843 291.468 229.719 290.981 229.493C290.495 229.259 290.125 228.899 289.871 228.413C289.658 227.986 289.541 227.556 289.521 227.123C289.508 226.683 289.501 226.186 289.501 225.633V215.913H291.281V225.553C291.281 225.993 291.285 226.369 291.291 226.683C291.305 226.996 291.375 227.266 291.501 227.493C291.741 227.919 292.121 228.169 292.641 228.243C293.168 228.316 293.801 228.296 294.541 228.183V229.713ZM287.311 220.383V218.913H294.541V220.383H287.311ZM296.734 229.713V218.913H298.324V221.523L298.064 221.183C298.191 220.849 298.354 220.543 298.554 220.263C298.761 219.983 298.991 219.753 299.244 219.573C299.524 219.346 299.841 219.173 300.194 219.053C300.547 218.933 300.907 218.863 301.274 218.843C301.641 218.816 301.984 218.839 302.304 218.913V220.583C301.931 220.483 301.521 220.456 301.074 220.503C300.627 220.549 300.214 220.713 299.834 220.993C299.487 221.239 299.217 221.539 299.024 221.893C298.837 222.246 298.707 222.629 298.634 223.043C298.561 223.449 298.524 223.866 298.524 224.293V229.713H296.734ZM306.913 230.013C306.107 230.013 305.43 229.866 304.883 229.573C304.343 229.273 303.933 228.879 303.653 228.393C303.38 227.906 303.243 227.373 303.243 226.793C303.243 226.226 303.35 225.736 303.563 225.323C303.783 224.903 304.09 224.556 304.483 224.283C304.877 224.003 305.347 223.783 305.893 223.623C306.407 223.483 306.98 223.363 307.613 223.263C308.253 223.156 308.9 223.059 309.553 222.973C310.207 222.886 310.817 222.803 311.383 222.723L310.743 223.093C310.763 222.133 310.57 221.423 310.163 220.963C309.763 220.503 309.07 220.273 308.083 220.273C307.43 220.273 306.857 220.423 306.363 220.723C305.877 221.016 305.533 221.496 305.333 222.163L303.643 221.653C303.903 220.706 304.407 219.963 305.153 219.423C305.9 218.883 306.883 218.613 308.103 218.613C309.083 218.613 309.923 218.789 310.623 219.143C311.33 219.489 311.837 220.016 312.143 220.723C312.297 221.056 312.393 221.419 312.433 221.813C312.473 222.199 312.493 222.606 312.493 223.033V229.713H310.913V227.123L311.283 227.363C310.877 228.236 310.307 228.896 309.573 229.343C308.847 229.789 307.96 230.013 306.913 230.013ZM307.183 228.523C307.823 228.523 308.377 228.409 308.843 228.183C309.317 227.949 309.697 227.646 309.983 227.273C310.27 226.893 310.457 226.479 310.543 226.033C310.643 225.699 310.697 225.329 310.703 224.923C310.717 224.509 310.723 224.193 310.723 223.973L311.343 224.243C310.763 224.323 310.193 224.399 309.633 224.473C309.073 224.546 308.543 224.626 308.043 224.713C307.543 224.793 307.093 224.889 306.693 225.003C306.4 225.096 306.123 225.216 305.863 225.363C305.61 225.509 305.403 225.699 305.243 225.933C305.09 226.159 305.013 226.443 305.013 226.783C305.013 227.076 305.087 227.356 305.233 227.623C305.387 227.889 305.62 228.106 305.933 228.273C306.253 228.439 306.67 228.523 307.183 228.523ZM322.783 229.713V224.303C322.783 223.789 322.737 223.296 322.643 222.823C322.557 222.349 322.4 221.926 322.173 221.553C321.953 221.173 321.653 220.873 321.273 220.653C320.9 220.433 320.427 220.323 319.853 220.323C319.407 220.323 319 220.399 318.633 220.553C318.273 220.699 317.963 220.926 317.703 221.233C317.443 221.539 317.24 221.926 317.093 222.393C316.953 222.853 316.883 223.396 316.883 224.023L315.713 223.663C315.713 222.616 315.9 221.719 316.273 220.973C316.653 220.219 317.183 219.643 317.863 219.243C318.55 218.836 319.357 218.633 320.283 218.633C320.983 218.633 321.58 218.743 322.073 218.963C322.567 219.183 322.977 219.476 323.303 219.843C323.63 220.203 323.887 220.609 324.073 221.063C324.26 221.509 324.39 221.966 324.463 222.433C324.543 222.893 324.583 223.329 324.583 223.743V229.713H322.783ZM315.083 229.713V218.913H316.683V221.803H316.883V229.713H315.083ZM331.553 234.813C330.987 234.813 330.433 234.726 329.893 234.553C329.353 234.379 328.857 234.116 328.403 233.763C327.957 233.416 327.583 232.976 327.283 232.443L328.913 231.583C329.18 232.109 329.557 232.493 330.043 232.733C330.537 232.973 331.043 233.093 331.563 233.093C332.25 233.093 332.82 232.966 333.273 232.713C333.727 232.466 334.06 232.096 334.273 231.603C334.493 231.109 334.6 230.496 334.593 229.763V226.813H334.803V218.913H336.383V229.783C336.383 230.076 336.373 230.359 336.353 230.633C336.34 230.906 336.307 231.176 336.253 231.443C336.113 232.209 335.837 232.839 335.423 233.333C335.01 233.833 334.477 234.203 333.823 234.443C333.17 234.689 332.413 234.813 331.553 234.813ZM331.423 230.013C330.417 230.013 329.553 229.763 328.833 229.263C328.113 228.756 327.557 228.073 327.163 227.213C326.777 226.353 326.583 225.383 326.583 224.303C326.583 223.223 326.777 222.253 327.163 221.393C327.557 220.533 328.113 219.856 328.833 219.363C329.553 218.863 330.413 218.613 331.413 218.613C332.433 218.613 333.29 218.859 333.983 219.353C334.677 219.846 335.2 220.523 335.553 221.383C335.913 222.243 336.093 223.216 336.093 224.303C336.093 225.376 335.913 226.346 335.553 227.213C335.2 228.073 334.677 228.756 333.983 229.263C333.29 229.763 332.437 230.013 331.423 230.013ZM331.643 228.383C332.37 228.383 332.967 228.209 333.433 227.863C333.9 227.509 334.243 227.026 334.463 226.413C334.69 225.793 334.803 225.089 334.803 224.303C334.803 223.503 334.69 222.799 334.463 222.193C334.243 221.579 333.903 221.103 333.443 220.763C332.983 220.416 332.4 220.243 331.693 220.243C330.96 220.243 330.353 220.423 329.873 220.783C329.4 221.143 329.047 221.629 328.813 222.243C328.587 222.856 328.473 223.543 328.473 224.303C328.473 225.069 328.59 225.763 328.823 226.383C329.057 226.996 329.407 227.483 329.873 227.843C330.347 228.203 330.937 228.383 331.643 228.383ZM343.855 230.013C342.795 230.013 341.869 229.779 341.075 229.313C340.289 228.839 339.675 228.183 339.235 227.343C338.795 226.496 338.575 225.509 338.575 224.383C338.575 223.203 338.792 222.183 339.225 221.323C339.659 220.456 340.262 219.789 341.035 219.323C341.815 218.849 342.729 218.613 343.775 218.613C344.862 218.613 345.785 218.863 346.545 219.363C347.312 219.863 347.885 220.576 348.265 221.503C348.652 222.429 348.819 223.533 348.765 224.813H346.965V224.173C346.945 222.846 346.675 221.856 346.155 221.203C345.635 220.543 344.862 220.213 343.835 220.213C342.735 220.213 341.899 220.566 341.325 221.273C340.752 221.979 340.465 222.993 340.465 224.313C340.465 225.586 340.752 226.573 341.325 227.273C341.899 227.973 342.715 228.323 343.775 228.323C344.489 228.323 345.109 228.159 345.635 227.833C346.162 227.506 346.575 227.036 346.875 226.423L348.585 227.013C348.165 227.966 347.532 228.706 346.685 229.233C345.845 229.753 344.902 230.013 343.855 230.013ZM339.865 224.813V223.383H347.845V224.813H339.865ZM350.992 229.713V218.913H352.582V221.523L352.322 221.183C352.448 220.849 352.612 220.543 352.812 220.263C353.018 219.983 353.248 219.753 353.502 219.573C353.782 219.346 354.098 219.173 354.452 219.053C354.805 218.933 355.165 218.863 355.532 218.843C355.898 218.816 356.242 218.839 356.562 218.913V220.583C356.188 220.483 355.778 220.456 355.332 220.503C354.885 220.549 354.472 220.713 354.092 220.993C353.745 221.239 353.475 221.539 353.282 221.893C353.095 222.246 352.965 222.629 352.892 223.043C352.818 223.449 352.782 223.866 352.782 224.293V229.713H350.992ZM362.142 230.003C360.855 230.003 359.799 229.723 358.972 229.163C358.152 228.596 357.649 227.806 357.462 226.793L359.282 226.503C359.429 227.089 359.765 227.556 360.292 227.903C360.819 228.243 361.472 228.413 362.252 228.413C362.992 228.413 363.572 228.259 363.992 227.953C364.412 227.646 364.622 227.229 364.622 226.703C364.622 226.396 364.552 226.149 364.412 225.963C364.272 225.769 363.982 225.589 363.542 225.423C363.109 225.256 362.452 225.056 361.572 224.823C360.619 224.569 359.869 224.306 359.322 224.033C358.775 223.759 358.385 223.443 358.152 223.083C357.919 222.723 357.802 222.286 357.802 221.773C357.802 221.139 357.975 220.586 358.322 220.113C358.669 219.633 359.152 219.263 359.772 219.003C360.399 218.743 361.125 218.613 361.952 218.613C362.772 218.613 363.505 218.743 364.152 219.003C364.799 219.263 365.319 219.633 365.712 220.113C366.112 220.586 366.349 221.139 366.422 221.773L364.602 222.103C364.515 221.523 364.235 221.066 363.762 220.733C363.295 220.399 362.692 220.223 361.952 220.203C361.252 220.176 360.682 220.299 360.242 220.573C359.809 220.846 359.592 221.216 359.592 221.683C359.592 221.943 359.672 222.166 359.832 222.353C359.999 222.539 360.302 222.716 360.742 222.883C361.189 223.049 361.835 223.239 362.682 223.453C363.635 223.693 364.385 223.956 364.932 224.243C365.485 224.523 365.879 224.856 366.112 225.243C366.345 225.623 366.462 226.093 366.462 226.653C366.462 227.693 366.079 228.513 365.312 229.113C364.545 229.706 363.489 230.003 362.142 230.003ZM368.988 229.713V227.753H370.948V229.713H368.988Z" fill="white"/>
</svg>
