<svg width="1440" height="900" viewBox="0 0 1440 900" fill="none" xmlns="http://www.w3.org/2000/svg">
<g opacity="0.7">
<path d="M216.901 -204.851C216.901 -228.972 236.455 -248.525 260.575 -248.525H1161.3C1185.42 -248.525 1204.97 -228.972 1204.97 -204.851V1156.53H1059.93V512.921H1058.51C1042.48 335.044 892.986 195.652 710.935 195.652C528.885 195.652 379.391 335.044 363.362 512.921H361.939V1156.53H216.901V-204.851Z" fill="#855DCD"/>
<path d="M12.4647 -49.0986C-16.7145 -49.0986 -37.6869 -21.0336 -29.4191 6.9498L3.69523 119.029C9.17915 137.59 26.2249 150.328 45.579 150.328H62.7992V957.099C37.7674 957.099 17.475 977.391 17.475 1002.42V1056.81H8.4102C-16.6217 1056.81 -36.914 1077.1 -36.914 1102.14V1156.53H470.717V1102.14C470.717 1077.1 450.425 1056.81 425.393 1056.81H416.328V1002.42C416.328 977.391 396.036 957.099 371.004 957.099H316.615V-49.0986H12.4647Z" fill="#855DCD"/>
<path d="M1069 957.099C1043.96 957.099 1023.67 977.391 1023.67 1002.42V1056.81H1014.61C989.575 1056.81 969.283 1077.1 969.283 1102.14V1156.53H1476.91V1102.14C1476.91 1077.1 1456.62 1056.81 1431.59 1056.81H1422.52V1002.42C1422.52 977.391 1402.23 957.099 1377.2 957.099V150.328H1394.42C1413.78 150.328 1430.82 137.59 1436.3 119.029L1469.42 6.9498C1477.69 -21.0336 1456.71 -49.0986 1427.54 -49.0986H1123.39V957.099H1069Z" fill="#855DCD"/>
<path d="M216.901 -204.851C216.901 -228.972 236.455 -248.525 260.575 -248.525H1161.3C1185.42 -248.525 1204.97 -228.972 1204.97 -204.851V1156.53H1059.93V512.921H1058.51C1042.48 335.044 892.986 195.652 710.935 195.652C528.885 195.652 379.391 335.044 363.362 512.921H361.939V1156.53H216.901V-204.851Z" stroke="url(#paint0_linear_167_2319)" stroke-width="0.975918"/>
<path d="M12.4647 -49.0986C-16.7145 -49.0986 -37.6869 -21.0336 -29.4191 6.9498L3.69523 119.029C9.17915 137.59 26.2249 150.328 45.579 150.328H62.7992V957.099C37.7674 957.099 17.475 977.391 17.475 1002.42V1056.81H8.4102C-16.6217 1056.81 -36.914 1077.1 -36.914 1102.14V1156.53H470.717V1102.14C470.717 1077.1 450.425 1056.81 425.393 1056.81H416.328V1002.42C416.328 977.391 396.036 957.099 371.004 957.099H316.615V-49.0986H12.4647Z" stroke="url(#paint1_linear_167_2319)" stroke-width="0.975918"/>
<path d="M1069 957.099C1043.96 957.099 1023.67 977.391 1023.67 1002.42V1056.81H1014.61C989.575 1056.81 969.283 1077.1 969.283 1102.14V1156.53H1476.91V1102.14C1476.91 1077.1 1456.62 1056.81 1431.59 1056.81H1422.52V1002.42C1422.52 977.391 1402.23 957.099 1377.2 957.099V150.328H1394.42C1413.78 150.328 1430.82 137.59 1436.3 119.029L1469.42 6.9498C1477.69 -21.0336 1456.71 -49.0986 1427.54 -49.0986H1123.39V957.099H1069Z" stroke="url(#paint2_linear_167_2319)" stroke-width="0.975918"/>
<path d="M249.742 -161.843C249.742 -184.389 268.019 -202.666 290.565 -202.666H1132.49C1155.04 -202.666 1173.31 -184.389 1173.31 -161.844V1110.67H1037.74V509.076H1036.41C1021.43 342.81 881.694 212.517 711.527 212.517C541.36 212.517 401.625 342.81 386.642 509.076H385.312V1110.67H249.742V-161.843Z" fill="#855DCD"/>
<path d="M58.6501 -16.2575C31.3756 -16.2575 11.7722 9.97549 19.5004 36.1323L50.4531 140.895C55.579 158.245 71.5121 170.151 89.6029 170.151H105.699V924.259C82.3011 924.259 63.3334 943.227 63.3334 966.625V1017.46H54.8603C31.4624 1017.46 12.4947 1036.43 12.4947 1059.83V1110.67H486.989V1059.83C486.989 1036.43 468.022 1017.46 444.624 1017.46H436.151V966.625C436.151 943.227 417.183 924.259 393.785 924.259H342.946V-16.2575H58.6501Z" fill="#855DCD"/>
<path d="M1046.22 924.259C1022.82 924.259 1003.85 943.227 1003.85 966.625V1017.46H995.377C971.979 1017.46 953.011 1036.43 953.011 1059.83V1110.67H1427.51V1059.83C1427.51 1036.43 1408.54 1017.46 1385.14 1017.46H1376.67V966.625C1376.67 943.227 1357.7 924.259 1334.3 924.259V170.151H1350.4C1368.49 170.151 1384.42 158.245 1389.55 140.895L1420.5 36.1322C1428.23 9.97546 1408.62 -16.2575 1381.35 -16.2575H1097.05V924.259H1046.22Z" fill="#855DCD"/>
<path d="M249.742 -161.843C249.742 -184.389 268.019 -202.666 290.565 -202.666H1132.49C1155.04 -202.666 1173.31 -184.389 1173.31 -161.844V1110.67H1037.74V509.076H1036.41C1021.43 342.81 881.694 212.517 711.527 212.517C541.36 212.517 401.625 342.81 386.642 509.076H385.312V1110.67H249.742V-161.843Z" stroke="url(#paint3_linear_167_2319)" stroke-width="0.912213"/>
<path d="M58.6501 -16.2575C31.3756 -16.2575 11.7722 9.97549 19.5004 36.1323L50.4531 140.895C55.579 158.245 71.5121 170.151 89.6029 170.151H105.699V924.259C82.3011 924.259 63.3334 943.227 63.3334 966.625V1017.46H54.8603C31.4624 1017.46 12.4947 1036.43 12.4947 1059.83V1110.67H486.989V1059.83C486.989 1036.43 468.022 1017.46 444.624 1017.46H436.151V966.625C436.151 943.227 417.183 924.259 393.785 924.259H342.946V-16.2575H58.6501Z" stroke="url(#paint4_linear_167_2319)" stroke-width="0.912213"/>
<path d="M1046.22 924.259C1022.82 924.259 1003.85 943.227 1003.85 966.625V1017.46H995.377C971.979 1017.46 953.011 1036.43 953.011 1059.83V1110.67H1427.51V1059.83C1427.51 1036.43 1408.54 1017.46 1385.14 1017.46H1376.67V966.625C1376.67 943.227 1357.7 924.259 1334.3 924.259V170.151H1350.4C1368.49 170.151 1384.42 158.245 1389.55 140.895L1420.5 36.1322C1428.23 9.97546 1408.62 -16.2575 1381.35 -16.2575H1097.05V924.259H1046.22Z" stroke="url(#paint5_linear_167_2319)" stroke-width="0.912213"/>
<rect x="377.731" y="200.932" width="677.519" height="740.143" rx="28.1463" fill="#855DCD" stroke="url(#paint6_linear_167_2319)" stroke-width="0.912213"/>
<path d="M961.803 861.287C1026.95 927.285 1063.6 1016.76 1063.72 1110.09L367.807 1110.09C367.926 1016.76 404.574 927.285 469.723 861.287C534.978 795.181 623.481 758.045 715.763 758.045C808.045 758.045 896.548 795.181 961.803 861.287Z" fill="#855DCD" stroke="url(#paint7_linear_167_2319)" stroke-width="0.912213"/>
<path d="M276.105 -125.031C276.105 -147.577 294.382 -165.854 316.928 -165.854H1107.08C1129.62 -165.854 1147.9 -147.577 1147.9 -125.031V1073.86H1019.93V505.988H1018.68C1004.53 349.043 872.63 226.054 712.003 226.054C551.375 226.054 419.473 349.043 405.33 505.988H404.075V1073.86H276.105V-125.031Z" fill="#855DCD"/>
<path d="M98.788 10.1047C71.5134 10.1047 51.91 36.3377 59.6382 62.4945L87.5034 156.808C92.6293 174.157 108.562 186.063 126.653 186.063H140.137V897.896C118.051 897.896 100.146 915.801 100.146 937.887V985.876H92.1481C70.0619 985.876 52.1575 1003.78 52.1575 1025.87V1073.86H500.052V1025.87C500.052 1003.78 482.148 985.876 460.062 985.876H452.064V937.887C452.064 915.801 434.159 897.896 412.073 897.896H364.084V10.1047H98.788Z" fill="#855DCD"/>
<path d="M1027.93 897.896C1005.84 897.896 987.938 915.801 987.938 937.887V985.876H979.94C957.853 985.876 939.949 1003.78 939.949 1025.87V1073.86H1387.84V1025.87C1387.84 1003.78 1369.94 985.876 1347.85 985.876H1339.86V937.887C1339.86 915.801 1321.95 897.896 1299.86 897.896V186.063H1313.35C1331.44 186.063 1347.37 174.157 1352.5 156.808L1380.36 62.4945C1388.09 36.3377 1368.49 10.1047 1341.21 10.1047H1075.92V897.896H1027.93Z" fill="#855DCD"/>
<path d="M276.105 -125.031C276.105 -147.577 294.382 -165.854 316.928 -165.854H1107.08C1129.62 -165.854 1147.9 -147.577 1147.9 -125.031V1073.86H1019.93V505.988H1018.68C1004.53 349.043 872.63 226.054 712.003 226.054C551.375 226.054 419.473 349.043 405.33 505.988H404.075V1073.86H276.105V-125.031Z" stroke="url(#paint8_linear_167_2319)" stroke-width="0.912213"/>
<path d="M98.788 10.1047C71.5134 10.1047 51.91 36.3377 59.6382 62.4945L87.5034 156.808C92.6293 174.157 108.562 186.063 126.653 186.063H140.137V897.896C118.051 897.896 100.146 915.801 100.146 937.887V985.876H92.1481C70.0619 985.876 52.1575 1003.78 52.1575 1025.87V1073.86H500.052V1025.87C500.052 1003.78 482.148 985.876 460.062 985.876H452.064V937.887C452.064 915.801 434.159 897.896 412.073 897.896H364.084V10.1047H98.788Z" stroke="url(#paint9_linear_167_2319)" stroke-width="0.912213"/>
<path d="M1027.93 897.896C1005.84 897.896 987.938 915.801 987.938 937.887V985.876H979.94C957.853 985.876 939.949 1003.78 939.949 1025.87V1073.86H1387.84V1025.87C1387.84 1003.78 1369.94 985.876 1347.85 985.876H1339.86V937.887C1339.86 915.801 1321.95 897.896 1299.86 897.896V186.063H1313.35C1331.44 186.063 1347.37 174.157 1352.5 156.808L1380.36 62.4945C1388.09 36.3377 1368.49 10.1047 1341.21 10.1047H1075.92V897.896H1027.93Z" stroke="url(#paint10_linear_167_2319)" stroke-width="0.912213"/>
<rect x="396.945" y="215.143" width="639.486" height="698.6" rx="28.1463" fill="#855DCD" stroke="url(#paint11_linear_167_2319)" stroke-width="0.912213"/>
<path d="M948.23 838.472C1009.72 900.76 1044.31 985.203 1044.43 1073.28L387.577 1073.28C387.696 985.203 422.286 900.76 483.772 838.472C545.364 776.077 628.9 741.025 716.001 741.025C803.103 741.025 886.638 776.077 948.23 838.472Z" fill="#855DCD" stroke="url(#paint12_linear_167_2319)" stroke-width="0.912213"/>
<path d="M311.455 -75.6703C311.455 -98.2161 329.732 -116.493 352.278 -116.493H1073C1095.55 -116.493 1113.83 -98.2161 1113.83 -75.6703V1024.49H996.046V501.847H994.891C981.874 357.401 860.476 244.206 712.64 244.206C564.804 244.206 443.406 357.401 430.39 501.847H429.234V1024.49H311.455V-75.6703Z" fill="#855DCD"/>
<path d="M152.609 45.4532C125.334 45.4532 105.731 71.6863 113.459 97.8431L137.184 178.144C142.31 195.493 158.243 207.4 176.334 207.4H186.315V862.546C165.987 862.546 149.509 879.025 149.509 899.352V943.519H142.148C121.82 943.519 105.342 959.998 105.342 980.325V1024.49H517.569V980.325C517.569 959.998 501.09 943.519 480.763 943.519H473.401V899.352C473.401 879.025 456.923 862.546 436.595 862.546H392.428V45.4532H152.609Z" fill="#855DCD"/>
<path d="M1003.41 862.546C983.08 862.546 966.602 879.025 966.602 899.352V943.519H959.24C938.913 943.519 922.434 959.998 922.434 980.325V1024.49H1334.66V980.325C1334.66 959.998 1318.18 943.519 1297.86 943.519H1290.49V899.352C1290.49 879.025 1274.02 862.546 1253.69 862.546V207.4H1263.67C1281.76 207.4 1297.69 195.493 1302.82 178.144L1326.54 97.843C1334.27 71.6862 1314.67 45.4532 1287.39 45.4532H1047.57V862.546H1003.41Z" fill="#855DCD"/>
<path d="M311.455 -75.6703C311.455 -98.2161 329.732 -116.493 352.278 -116.493H1073C1095.55 -116.493 1113.83 -98.2161 1113.83 -75.6703V1024.49H996.046V501.847H994.891C981.874 357.401 860.476 244.206 712.64 244.206C564.804 244.206 443.406 357.401 430.39 501.847H429.234V1024.49H311.455V-75.6703Z" stroke="url(#paint13_linear_167_2319)" stroke-width="0.912213"/>
<path d="M152.609 45.4532C125.334 45.4532 105.731 71.6863 113.459 97.8431L137.184 178.144C142.31 195.493 158.243 207.4 176.334 207.4H186.315V862.546C165.987 862.546 149.509 879.025 149.509 899.352V943.519H142.148C121.82 943.519 105.342 959.998 105.342 980.325V1024.49H517.569V980.325C517.569 959.998 501.09 943.519 480.763 943.519H473.401V899.352C473.401 879.025 456.923 862.546 436.595 862.546H392.428V45.4532H152.609Z" stroke="url(#paint14_linear_167_2319)" stroke-width="0.912213"/>
<path d="M1003.41 862.546C983.08 862.546 966.602 879.025 966.602 899.352V943.519H959.24C938.913 943.519 922.434 959.998 922.434 980.325V1024.49H1334.66V980.325C1334.66 959.998 1318.18 943.519 1297.86 943.519H1290.49V899.352C1290.49 879.025 1274.02 862.546 1253.69 862.546V207.4H1263.67C1281.76 207.4 1297.69 195.493 1302.82 178.144L1326.54 97.843C1334.27 71.6862 1314.67 45.4532 1287.39 45.4532H1047.57V862.546H1003.41Z" stroke="url(#paint15_linear_167_2319)" stroke-width="0.912213"/>
<rect x="422.708" y="234.199" width="588.488" height="642.895" rx="28.1463" fill="#855DCD" stroke="url(#paint16_linear_167_2319)" stroke-width="0.912213"/>
<path d="M930.03 807.879C986.605 865.191 1018.44 942.886 1018.55 1023.93L414.087 1023.93C414.206 942.886 446.036 865.191 502.611 807.879C559.291 750.46 636.165 718.203 716.32 718.203C796.476 718.203 873.35 750.46 930.03 807.879Z" fill="#855DCD" stroke="url(#paint17_linear_167_2319)" stroke-width="0.912213"/>
<path d="M343.209 -31.3288C343.209 -53.8746 361.486 -72.1516 384.032 -72.1516H1042.39C1064.94 -72.1516 1083.21 -53.8747 1083.21 -31.3288V980.149H974.589V498.127H973.524C961.518 364.908 849.556 260.511 713.211 260.511C576.866 260.511 464.904 364.908 452.899 498.127H451.833V980.149H343.209V-31.3288Z" fill="#855DCD"/>
<path d="M200.955 77.2071C173.681 77.2071 154.078 103.44 161.806 129.597L181.812 197.31C186.938 214.659 202.871 226.566 220.962 226.566H227.795V830.79C209.048 830.79 193.85 845.988 193.85 864.735V905.469H187.061C168.314 905.469 153.116 920.667 153.116 939.414V980.149H533.302V939.414C533.302 920.667 518.104 905.469 499.357 905.469H492.568V864.735C492.568 845.988 477.37 830.79 458.622 830.79H417.888V77.2071H200.955Z" fill="#855DCD"/>
<path d="M981.378 830.79C962.631 830.79 947.433 845.988 947.433 864.735V905.469H940.644C921.896 905.469 906.699 920.667 906.699 939.414V980.149H1286.88V939.414C1286.88 920.667 1271.69 905.469 1252.94 905.469H1246.15V864.735C1246.15 845.988 1230.95 830.79 1212.21 830.79V226.566H1219.04C1237.13 226.566 1253.06 214.659 1258.19 197.31L1278.19 129.597C1285.92 103.44 1266.32 77.2071 1239.05 77.2071H1022.11V830.79H981.378Z" fill="#855DCD"/>
<path d="M343.209 -31.3288C343.209 -53.8746 361.486 -72.1516 384.032 -72.1516H1042.39C1064.94 -72.1516 1083.21 -53.8747 1083.21 -31.3288V980.149H974.589V498.127H973.524C961.518 364.908 849.556 260.511 713.211 260.511C576.866 260.511 464.904 364.908 452.899 498.127H451.833V980.149H343.209V-31.3288Z" stroke="url(#paint18_linear_167_2319)" stroke-width="0.912213"/>
<path d="M200.955 77.2071C173.681 77.2071 154.078 103.44 161.806 129.597L181.812 197.31C186.938 214.659 202.871 226.566 220.962 226.566H227.795V830.79C209.048 830.79 193.85 845.988 193.85 864.735V905.469H187.061C168.314 905.469 153.116 920.667 153.116 939.414V980.149H533.302V939.414C533.302 920.667 518.104 905.469 499.357 905.469H492.568V864.735C492.568 845.988 477.37 830.79 458.622 830.79H417.888V77.2071H200.955Z" stroke="url(#paint19_linear_167_2319)" stroke-width="0.912213"/>
<path d="M981.378 830.79C962.631 830.79 947.433 845.988 947.433 864.735V905.469H940.644C921.896 905.469 906.699 920.667 906.699 939.414V980.149H1286.88V939.414C1286.88 920.667 1271.69 905.469 1252.94 905.469H1246.15V864.735C1246.15 845.988 1230.95 830.79 1212.21 830.79V226.566H1219.04C1237.13 226.566 1253.06 214.659 1258.19 197.31L1278.19 129.597C1285.92 103.44 1266.32 77.2071 1239.05 77.2071H1022.11V830.79H981.378Z" stroke="url(#paint20_linear_167_2319)" stroke-width="0.912213"/>
<rect x="445.85" y="251.318" width="542.676" height="592.854" rx="28.1463" fill="#855DCD" stroke="url(#paint21_linear_167_2319)" stroke-width="0.912213"/>
<path d="M913.679 780.397C965.841 833.24 995.193 904.872 995.312 979.592L437.899 979.592C438.018 904.872 467.37 833.24 519.532 780.397C571.8 727.448 642.69 697.702 716.606 697.702C790.522 697.702 861.411 727.448 913.679 780.397Z" fill="#855DCD" stroke="url(#paint22_linear_167_2319)" stroke-width="0.912213"/>
<g opacity="0.1">
<path d="M383.701 25.2141C383.701 2.66829 401.978 -15.6087 424.524 -15.6087H1003.36C1025.91 -15.6087 1044.18 2.66827 1044.18 25.2141V923.608H947.231V493.386H946.28C935.565 374.483 835.635 281.305 713.942 281.305C592.249 281.305 492.318 374.483 481.603 493.386H480.652V923.608H383.701V25.2141Z" fill="#855DCD"/>
<path d="M262.605 117.699C235.331 117.699 215.727 143.933 223.455 170.089L238.719 221.752C243.845 239.101 259.778 251.008 277.869 251.008H280.69V790.3C263.957 790.3 250.393 803.864 250.393 820.597V856.954H244.333C227.601 856.954 214.036 870.518 214.036 887.251V923.608H553.366V887.251C553.366 870.518 539.801 856.954 523.069 856.954H517.009V820.597C517.009 803.864 503.445 790.3 486.712 790.3H450.355V117.699H262.605Z" fill="#855DCD"/>
<path d="M953.29 790.3C936.558 790.3 922.993 803.864 922.993 820.597V856.954H916.934C900.201 856.954 886.636 870.518 886.636 887.251V923.608H1225.97V887.251C1225.97 870.518 1212.4 856.954 1195.67 856.954H1189.61V820.597C1189.61 803.864 1176.04 790.3 1159.31 790.3V251.008H1162.13C1180.22 251.008 1196.16 239.101 1201.28 221.752L1216.55 170.089C1224.27 143.932 1204.67 117.699 1177.4 117.699H989.647V790.3H953.29Z" fill="#855DCD"/>
<path d="M383.701 25.2141C383.701 2.66829 401.978 -15.6087 424.524 -15.6087H1003.36C1025.91 -15.6087 1044.18 2.66827 1044.18 25.2141V923.608H947.231V493.386H946.28C935.565 374.483 835.635 281.305 713.942 281.305C592.249 281.305 492.318 374.483 481.603 493.386H480.652V923.608H383.701V25.2141Z" stroke="url(#paint23_linear_167_2319)" stroke-width="0.912213"/>
<path d="M262.605 117.699C235.331 117.699 215.727 143.933 223.455 170.089L238.719 221.752C243.845 239.101 259.778 251.008 277.869 251.008H280.69V790.3C263.957 790.3 250.393 803.864 250.393 820.597V856.954H244.333C227.601 856.954 214.036 870.518 214.036 887.251V923.608H553.366V887.251C553.366 870.518 539.801 856.954 523.069 856.954H517.009V820.597C517.009 803.864 503.445 790.3 486.712 790.3H450.355V117.699H262.605Z" stroke="url(#paint24_linear_167_2319)" stroke-width="0.912213"/>
<path d="M953.29 790.3C936.558 790.3 922.993 803.864 922.993 820.597V856.954H916.934C900.201 856.954 886.636 870.518 886.636 887.251V923.608H1225.97V887.251C1225.97 870.518 1212.4 856.954 1195.67 856.954H1189.61V820.597C1189.61 803.864 1176.04 790.3 1159.31 790.3V251.008H1162.13C1180.22 251.008 1196.16 239.101 1201.28 221.752L1216.55 170.089C1224.27 143.932 1204.67 117.699 1177.4 117.699H989.647V790.3H953.29Z" stroke="url(#paint25_linear_167_2319)" stroke-width="0.912213"/>
<rect x="475.361" y="273.149" width="484.26" height="529.045" rx="28.1463" fill="#855DCD" stroke="url(#paint26_linear_167_2319)" stroke-width="0.912213"/>
<circle cx="712.357" cy="509.382" r="104.419" fill="#855DCD" stroke="url(#paint27_linear_167_2319)" stroke-width="0.912213"/>
<path d="M892.831 745.358C939.368 792.5 965.559 856.403 965.678 923.063L468.264 923.063C468.383 856.403 494.574 792.5 541.111 745.358C587.753 698.107 651.012 671.564 716.971 671.564C782.93 671.564 846.189 698.107 892.831 745.358Z" fill="#855DCD" stroke="url(#paint28_linear_167_2319)" stroke-width="0.912213"/>
</g>
<path d="M383.701 25.2141C383.701 2.66829 401.978 -15.6087 424.524 -15.6087H1003.36C1025.91 -15.6087 1044.18 2.66827 1044.18 25.2141V923.608H947.231V493.386H946.28C935.565 374.483 835.635 281.305 713.942 281.305C592.249 281.305 492.318 374.483 481.603 493.386H480.652V923.608H383.701V25.2141Z" fill="url(#paint29_linear_167_2319)"/>
<path d="M262.605 117.699C235.331 117.699 215.727 143.933 223.455 170.089L238.719 221.752C243.845 239.101 259.778 251.008 277.869 251.008H280.69V790.3C263.957 790.3 250.393 803.864 250.393 820.597V856.954H244.333C227.601 856.954 214.036 870.518 214.036 887.251V923.608H553.366V887.251C553.366 870.518 539.801 856.954 523.069 856.954H517.009V820.597C517.009 803.864 503.445 790.3 486.712 790.3H450.355V117.699H262.605Z" fill="url(#paint30_linear_167_2319)"/>
<path d="M953.29 790.3C936.558 790.3 922.993 803.864 922.993 820.597V856.954H916.934C900.201 856.954 886.636 870.518 886.636 887.251V923.608H1225.97V887.251C1225.97 870.518 1212.4 856.954 1195.67 856.954H1189.61V820.597C1189.61 803.864 1176.04 790.3 1159.31 790.3V251.008H1162.13C1180.22 251.008 1196.16 239.101 1201.28 221.752L1216.55 170.089C1224.27 143.932 1204.67 117.699 1177.4 117.699H989.647V790.3H953.29Z" fill="url(#paint31_linear_167_2319)"/>
<rect x="474.905" y="272.693" width="485.173" height="529.958" rx="28.6024" fill="#855DCD"/>
<path d="M966.134 923.519C966.134 856.575 939.883 792.373 893.156 745.037C846.429 697.701 783.053 671.108 716.971 671.108C650.889 671.108 587.513 697.701 540.786 745.037C494.059 792.373 467.808 856.575 467.808 923.519L966.134 923.519Z" fill="url(#paint32_linear_167_2319)"/>
</g>
<defs>
<linearGradient id="paint0_linear_167_2319" x1="720" y1="-248.525" x2="719.979" y2="858.734" gradientUnits="userSpaceOnUse">
<stop stop-color="white" stop-opacity="0.48"/>
<stop offset="1" stop-color="white" stop-opacity="0"/>
</linearGradient>
<linearGradient id="paint1_linear_167_2319" x1="720" y1="-248.525" x2="719.979" y2="858.734" gradientUnits="userSpaceOnUse">
<stop stop-color="white" stop-opacity="0.48"/>
<stop offset="1" stop-color="white" stop-opacity="0"/>
</linearGradient>
<linearGradient id="paint2_linear_167_2319" x1="720" y1="-248.525" x2="719.979" y2="858.734" gradientUnits="userSpaceOnUse">
<stop stop-color="white" stop-opacity="0.48"/>
<stop offset="1" stop-color="white" stop-opacity="0"/>
</linearGradient>
<linearGradient id="paint3_linear_167_2319" x1="720" y1="-202.666" x2="719.981" y2="832.315" gradientUnits="userSpaceOnUse">
<stop stop-color="white" stop-opacity="0.48"/>
<stop offset="1" stop-color="white" stop-opacity="0"/>
</linearGradient>
<linearGradient id="paint4_linear_167_2319" x1="720" y1="-202.666" x2="719.981" y2="832.315" gradientUnits="userSpaceOnUse">
<stop stop-color="white" stop-opacity="0.48"/>
<stop offset="1" stop-color="white" stop-opacity="0"/>
</linearGradient>
<linearGradient id="paint5_linear_167_2319" x1="720" y1="-202.666" x2="719.981" y2="832.315" gradientUnits="userSpaceOnUse">
<stop stop-color="white" stop-opacity="0.48"/>
<stop offset="1" stop-color="white" stop-opacity="0"/>
</linearGradient>
<linearGradient id="paint6_linear_167_2319" x1="716.49" y1="200.476" x2="716.477" y2="784.469" gradientUnits="userSpaceOnUse">
<stop stop-color="white" stop-opacity="0.48"/>
<stop offset="1" stop-color="white" stop-opacity="0"/>
</linearGradient>
<linearGradient id="paint7_linear_167_2319" x1="715.763" y1="757.588" x2="715.76" y2="1035.74" gradientUnits="userSpaceOnUse">
<stop stop-color="white" stop-opacity="0.48"/>
<stop offset="1" stop-color="white" stop-opacity="0"/>
</linearGradient>
<linearGradient id="paint8_linear_167_2319" x1="720.001" y1="-165.854" x2="719.982" y2="811.107" gradientUnits="userSpaceOnUse">
<stop stop-color="white" stop-opacity="0.48"/>
<stop offset="1" stop-color="white" stop-opacity="0"/>
</linearGradient>
<linearGradient id="paint9_linear_167_2319" x1="720.001" y1="-165.854" x2="719.982" y2="811.107" gradientUnits="userSpaceOnUse">
<stop stop-color="white" stop-opacity="0.48"/>
<stop offset="1" stop-color="white" stop-opacity="0"/>
</linearGradient>
<linearGradient id="paint10_linear_167_2319" x1="720.001" y1="-165.854" x2="719.982" y2="811.107" gradientUnits="userSpaceOnUse">
<stop stop-color="white" stop-opacity="0.48"/>
<stop offset="1" stop-color="white" stop-opacity="0"/>
</linearGradient>
<linearGradient id="paint11_linear_167_2319" x1="716.688" y1="214.687" x2="716.675" y2="765.942" gradientUnits="userSpaceOnUse">
<stop stop-color="white" stop-opacity="0.48"/>
<stop offset="1" stop-color="white" stop-opacity="0"/>
</linearGradient>
<linearGradient id="paint12_linear_167_2319" x1="716.001" y1="740.569" x2="715.999" y2="1003.12" gradientUnits="userSpaceOnUse">
<stop stop-color="white" stop-opacity="0.48"/>
<stop offset="1" stop-color="white" stop-opacity="0"/>
</linearGradient>
<linearGradient id="paint13_linear_167_2319" x1="720.001" y1="-116.493" x2="719.984" y2="782.668" gradientUnits="userSpaceOnUse">
<stop stop-color="white" stop-opacity="0.48"/>
<stop offset="1" stop-color="white" stop-opacity="0"/>
</linearGradient>
<linearGradient id="paint14_linear_167_2319" x1="720.001" y1="-116.493" x2="719.984" y2="782.668" gradientUnits="userSpaceOnUse">
<stop stop-color="white" stop-opacity="0.48"/>
<stop offset="1" stop-color="white" stop-opacity="0"/>
</linearGradient>
<linearGradient id="paint15_linear_167_2319" x1="720.001" y1="-116.493" x2="719.984" y2="782.668" gradientUnits="userSpaceOnUse">
<stop stop-color="white" stop-opacity="0.48"/>
<stop offset="1" stop-color="white" stop-opacity="0"/>
</linearGradient>
<linearGradient id="paint16_linear_167_2319" x1="716.952" y1="233.743" x2="716.941" y2="741.099" gradientUnits="userSpaceOnUse">
<stop stop-color="white" stop-opacity="0.48"/>
<stop offset="1" stop-color="white" stop-opacity="0"/>
</linearGradient>
<linearGradient id="paint17_linear_167_2319" x1="716.32" y1="717.747" x2="716.318" y2="959.394" gradientUnits="userSpaceOnUse">
<stop stop-color="white" stop-opacity="0.48"/>
<stop offset="1" stop-color="white" stop-opacity="0"/>
</linearGradient>
<linearGradient id="paint18_linear_167_2319" x1="720" y1="-72.1516" x2="719.984" y2="757.12" gradientUnits="userSpaceOnUse">
<stop stop-color="white" stop-opacity="0.48"/>
<stop offset="1" stop-color="white" stop-opacity="0"/>
</linearGradient>
<linearGradient id="paint19_linear_167_2319" x1="720" y1="-72.1516" x2="719.984" y2="757.12" gradientUnits="userSpaceOnUse">
<stop stop-color="white" stop-opacity="0.48"/>
<stop offset="1" stop-color="white" stop-opacity="0"/>
</linearGradient>
<linearGradient id="paint20_linear_167_2319" x1="720" y1="-72.1516" x2="719.984" y2="757.12" gradientUnits="userSpaceOnUse">
<stop stop-color="white" stop-opacity="0.48"/>
<stop offset="1" stop-color="white" stop-opacity="0"/>
</linearGradient>
<linearGradient id="paint21_linear_167_2319" x1="717.188" y1="250.862" x2="717.178" y2="718.783" gradientUnits="userSpaceOnUse">
<stop stop-color="white" stop-opacity="0.48"/>
<stop offset="1" stop-color="white" stop-opacity="0"/>
</linearGradient>
<linearGradient id="paint22_linear_167_2319" x1="716.606" y1="697.246" x2="716.603" y2="920.11" gradientUnits="userSpaceOnUse">
<stop stop-color="white" stop-opacity="0.48"/>
<stop offset="1" stop-color="white" stop-opacity="0"/>
</linearGradient>
<linearGradient id="paint23_linear_167_2319" x1="720.001" y1="-15.6087" x2="719.987" y2="724.547" gradientUnits="userSpaceOnUse">
<stop stop-color="white" stop-opacity="0.48"/>
<stop offset="1" stop-color="white" stop-opacity="0"/>
</linearGradient>
<linearGradient id="paint24_linear_167_2319" x1="720.001" y1="-15.6087" x2="719.987" y2="724.547" gradientUnits="userSpaceOnUse">
<stop stop-color="white" stop-opacity="0.48"/>
<stop offset="1" stop-color="white" stop-opacity="0"/>
</linearGradient>
<linearGradient id="paint25_linear_167_2319" x1="720.001" y1="-15.6087" x2="719.987" y2="724.547" gradientUnits="userSpaceOnUse">
<stop stop-color="white" stop-opacity="0.48"/>
<stop offset="1" stop-color="white" stop-opacity="0"/>
</linearGradient>
<linearGradient id="paint26_linear_167_2319" x1="717.491" y1="272.693" x2="717.482" y2="690.329" gradientUnits="userSpaceOnUse">
<stop stop-color="white" stop-opacity="0.48"/>
<stop offset="1" stop-color="white" stop-opacity="0"/>
</linearGradient>
<linearGradient id="paint27_linear_167_2319" x1="712.357" y1="404.507" x2="712.354" y2="569.802" gradientUnits="userSpaceOnUse">
<stop stop-color="white" stop-opacity="0.48"/>
<stop offset="1" stop-color="white" stop-opacity="0"/>
</linearGradient>
<linearGradient id="paint28_linear_167_2319" x1="716.971" y1="671.108" x2="716.969" y2="870.022" gradientUnits="userSpaceOnUse">
<stop stop-color="white" stop-opacity="0.48"/>
<stop offset="1" stop-color="white" stop-opacity="0"/>
</linearGradient>
<linearGradient id="paint29_linear_167_2319" x1="720.001" y1="-15.6087" x2="719.979" y2="1347.73" gradientUnits="userSpaceOnUse">
<stop offset="0.179329" stop-color="#7347C4"/>
<stop offset="0.526031" stop-color="#764CC2" stop-opacity="0.577538"/>
<stop offset="1" stop-color="#7A54BF" stop-opacity="0"/>
</linearGradient>
<linearGradient id="paint30_linear_167_2319" x1="720.001" y1="-15.6087" x2="719.979" y2="1347.73" gradientUnits="userSpaceOnUse">
<stop offset="0.179329" stop-color="#7347C4"/>
<stop offset="0.526031" stop-color="#764CC2" stop-opacity="0.577538"/>
<stop offset="1" stop-color="#7A54BF" stop-opacity="0"/>
</linearGradient>
<linearGradient id="paint31_linear_167_2319" x1="720.001" y1="-15.6087" x2="719.979" y2="1347.73" gradientUnits="userSpaceOnUse">
<stop offset="0.179329" stop-color="#7347C4"/>
<stop offset="0.526031" stop-color="#764CC2" stop-opacity="0.577538"/>
<stop offset="1" stop-color="#7A54BF" stop-opacity="0"/>
</linearGradient>
<linearGradient id="paint32_linear_167_2319" x1="716.979" y1="937.735" x2="716.979" y2="585.235" gradientUnits="userSpaceOnUse">
<stop stop-color="#7653B5"/>
<stop offset="1" stop-color="#7653B5" stop-opacity="0"/>
</linearGradient>
</defs>
</svg>
