<svg width="202" height="41" viewBox="0 0 202 41" fill="none" xmlns="http://www.w3.org/2000/svg">
<path d="M7.60442 1.76659C7.60442 0.790931 8.39535 0 9.37101 0H34.42C35.3956 0 36.1866 0.790933 36.1866 1.7666V40.6443H31.991V22.0266H31.9499C31.4862 16.8811 27.1617 12.8489 21.8955 12.8489C16.6293 12.8489 12.3048 16.8811 11.8411 22.0266H11.8V40.6443H7.60442V1.76659Z" fill="white"/>
<path d="M2.36404 5.76887C1.18374 5.76887 0.335408 6.9041 0.66984 8.03602L1.33038 10.2717C1.55221 11.0225 2.24171 11.5377 3.02458 11.5377H3.14666V34.8755C2.42255 34.8755 1.83555 35.4625 1.83555 36.1866V37.7599H1.57333C0.849224 37.7599 0.262221 38.3469 0.262221 39.071V40.6443H14.9466V39.071C14.9466 38.3469 14.3596 37.7599 13.6355 37.7599H13.3733V36.1866C13.3733 35.4625 12.7863 34.8755 12.0622 34.8755H10.4889V5.76887H2.36404Z" fill="white"/>
<path d="M32.2532 34.8755C31.5291 34.8755 30.9421 35.4625 30.9421 36.1866V37.7599H30.6799C29.9558 37.7599 29.3688 38.3469 29.3688 39.071V40.6443H44.0532V39.071C44.0532 38.3469 43.4662 37.7599 42.7421 37.7599H42.4799V36.1866C42.4799 35.4625 41.8929 34.8755 41.1688 34.8755V11.5377H41.2908C42.0737 11.5377 42.7632 11.0225 42.985 10.2717L43.6456 8.03602C43.98 6.9041 43.1317 5.76887 41.9514 5.76887H33.8266V34.8755H32.2532Z" fill="white"/>
<rect x="11.5518" y="12.4771" width="20.9957" height="22.9338" rx="1.23776" fill="#855DCD"/>
<circle cx="21.8271" cy="22.7191" r="4.53845" fill="white"/>
<path d="M32.8086 40.6403C32.8086 37.7433 31.6726 34.965 29.6505 32.9166C27.6284 30.8681 24.8859 29.7173 22.0262 29.7173C19.1665 29.7173 16.4239 30.8681 14.4018 32.9166C12.3797 34.965 11.2437 37.7433 11.2437 40.6403L32.8086 40.6403Z" fill="white"/>
<path d="M192.807 34.7207C191.967 34.7207 191.287 34.04 191.287 33.2004V14.1948C191.287 13.3552 190.606 12.6746 189.766 12.6746H189.403C188.564 12.6746 187.883 11.994 187.883 11.1543V8.04516C187.883 7.20555 188.564 6.5249 189.403 6.5249H200.48C201.32 6.5249 202 7.20554 202 8.04516V11.1543C202 11.9939 201.32 12.6746 200.48 12.6746H199.923C199.084 12.6746 198.403 13.3552 198.403 14.1949V33.2004C198.403 34.04 197.723 34.7207 196.883 34.7207H192.807Z" fill="white"/>
<path d="M179.161 35.1089C173.901 35.1089 171.534 32.0563 171.138 27.3064C171.069 26.4696 171.758 25.7876 172.598 25.7876H175.553C176.392 25.7876 177.055 26.4709 177.139 27.3063C177.334 29.244 177.951 29.8874 178.929 29.8874C180.051 29.8874 180.399 28.9978 180.399 27.5281C180.399 25.3622 179.355 24.4726 176.686 22.8481C173.979 21.2237 171.233 18.9417 171.233 13.991C171.233 8.61489 174.481 6.17822 179.084 6.17822C183.653 6.17822 186.568 8.22166 187.027 13.4373C187.1 14.2737 186.41 14.958 185.57 14.958H182.522C181.673 14.958 181.011 14.2611 180.933 13.4165C180.792 11.8916 180.334 11.2836 179.432 11.2836C178.427 11.2836 178.04 12.1345 178.04 13.5269C178.04 15.6155 178.891 16.3504 181.327 17.8201C184.576 19.7926 187.322 22.2293 187.322 26.9093C187.322 32.4788 184.267 35.1089 179.161 35.1089Z" fill="white"/>
<path d="M153.433 34.7207C152.501 34.7207 151.789 33.8904 151.93 32.9695L155.795 7.8143C155.909 7.07253 156.547 6.5249 157.298 6.5249H164.4C165.149 6.5249 165.786 7.07034 165.902 7.81028L169.836 32.9655C169.98 33.8876 169.267 34.7207 168.334 34.7207H164.684C163.917 34.7207 163.27 34.1497 163.175 33.389L162.928 31.4111C162.833 30.6503 162.186 30.0794 161.42 30.0794H160.324C159.553 30.0794 158.904 30.6572 158.814 31.4235L158.587 33.3766C158.497 34.1428 157.848 34.7207 157.077 34.7207H153.433ZM159.67 23.3303C159.586 24.0405 160.141 24.6646 160.856 24.6646C161.565 24.6646 162.118 24.0513 162.045 23.3464L161.563 18.7083L160.996 13.0791C160.988 13.0031 160.924 12.9453 160.848 12.9453C160.771 12.9453 160.707 13.0043 160.7 13.0811L160.209 18.7469L159.67 23.3303Z" fill="white"/>
<path d="M142.731 35.0698C136.156 35.0698 134.261 29.4616 134.261 20.6045C134.261 11.786 136.234 6.13916 143.196 6.13916C148.084 6.13916 150.935 8.51113 151.593 15.1491C151.678 16.0109 150.981 16.7367 150.115 16.7367H146.559C145.755 16.7367 145.099 16.11 145.019 15.3108C144.803 13.1666 144.395 12.1728 143.234 12.1728C141.61 12.1728 141.262 14.8029 141.262 20.6045C141.262 26.8702 141.726 29.0361 143.234 29.0361C144.456 29.0361 144.849 27.8873 145.036 25.7229C145.106 24.9158 145.765 24.2788 146.576 24.2788H150.146C151 24.2788 151.693 24.9858 151.623 25.8374C151.082 32.4593 148.128 35.0698 142.731 35.0698Z" fill="white"/>
<path d="M111.039 34.7207C110.273 34.7207 109.626 34.1507 109.53 33.3908L106.356 8.23551C106.241 7.32756 106.949 6.5249 107.864 6.5249H111.652C112.448 6.5249 113.109 7.13862 113.168 7.93222L114.069 20.0233L114.448 27.1962C114.452 27.273 114.516 27.3333 114.593 27.3333C114.668 27.3333 114.731 27.2754 114.737 27.2003L116.314 7.92124C116.378 7.13231 117.037 6.5249 117.829 6.5249H122.801C123.592 6.5249 124.252 7.13257 124.316 7.9217L125.893 27.2791C125.899 27.3534 125.961 27.4106 126.036 27.4106C126.113 27.4106 126.177 27.3493 126.179 27.272L126.407 20.1006L127.308 7.93286C127.367 7.13899 128.028 6.5249 128.824 6.5249H132.65C133.565 6.5249 134.273 7.32756 134.158 8.23551L130.984 33.3907C130.888 34.1507 130.242 34.7207 129.475 34.7207H123.038C122.236 34.7207 121.571 34.097 121.521 33.2962L120.458 16.4653C120.454 16.3999 120.399 16.3489 120.334 16.3489C120.269 16.3489 120.215 16.3992 120.21 16.464L118.968 33.3121C118.91 34.1062 118.249 34.7207 117.452 34.7207H111.039Z" fill="white"/>
<path d="M97.3034 35.0698C90.3802 35.0698 88.369 29.5003 88.369 20.6045C88.369 11.7087 90.3802 6.13916 97.3034 6.13916C104.265 6.13916 106.238 11.7474 106.238 20.6045C106.238 29.4616 104.265 35.0698 97.3034 35.0698ZM97.3034 29.0361C98.9665 29.0361 99.276 26.3287 99.276 20.6045C99.276 14.2614 98.7732 12.1728 97.3034 12.1728C95.679 12.1728 95.3696 14.8029 95.3696 20.6045C95.3696 26.9089 95.8337 29.0361 97.3034 29.0361Z" fill="white"/>
<path d="M71.1974 34.7207C70.3578 34.7207 69.6772 34.04 69.6772 33.2004V8.04516C69.6772 7.20555 70.3578 6.5249 71.1974 6.5249H75.2736C76.1132 6.5249 76.7938 7.20555 76.7938 8.04516V16.1362C76.7938 16.8518 77.3739 17.4319 78.0895 17.4319C78.8051 17.4319 79.3852 16.8518 79.3852 16.1362V8.04516C79.3852 7.20554 80.0658 6.5249 80.9054 6.5249H85.0589C85.8985 6.5249 86.5792 7.20555 86.5792 8.04516V33.2004C86.5792 34.04 85.8985 34.7207 85.0589 34.7207H80.9054C80.0658 34.7207 79.3852 34.04 79.3852 33.2004V24.7613C79.3852 24.0457 78.8051 23.4656 78.0895 23.4656C77.3739 23.4656 76.7938 24.0457 76.7938 24.7613V33.2004C76.7938 34.04 76.1132 34.7207 75.2736 34.7207H71.1974Z" fill="white"/>
<path d="M59.6544 35.1089C54.394 35.1089 52.0272 32.0563 51.6314 27.3064C51.5617 26.4696 52.2514 25.7876 53.0911 25.7876H56.0455C56.8851 25.7876 57.5482 26.4709 57.632 27.3063C57.8265 29.244 58.4442 29.8874 59.4223 29.8874C60.5439 29.8874 60.892 28.9978 60.892 27.5281C60.892 25.3622 59.8477 24.4726 57.179 22.8481C54.4716 21.2237 51.7255 18.9417 51.7255 13.991C51.7255 8.61489 54.9744 6.17822 59.577 6.17822C64.1461 6.17822 67.0609 8.22166 67.5196 13.4373C67.5932 14.2737 66.9026 14.958 66.0629 14.958H63.0146C62.1664 14.958 61.5042 14.2611 61.4261 13.4165C61.2852 11.8916 60.8273 11.2836 59.9251 11.2836C58.9195 11.2836 58.5327 12.1345 58.5327 13.5269C58.5327 15.6155 59.3836 16.3504 61.8203 17.8201C65.0692 19.7926 67.8153 22.2293 67.8153 26.9093C67.8153 32.4788 64.7598 35.1089 59.6544 35.1089Z" fill="white"/>
</svg>
